<svg width="183" height="207" viewBox="0 0 183 207" fill="none" xmlns="http://www.w3.org/2000/svg">
<path d="M183 111.202V95.9928C183 91.2985 180.476 86.9614 176.379 84.6173L31.5649 1.75415C27.478 -0.584364 22.4459 -0.584742 18.3587 1.75316L6.62273 8.46619C2.52512 10.81 0 15.1477 0 19.8426V186.509C0 191.205 2.52592 195.543 6.62451 197.887L19.4982 205.248C23.5949 207.59 28.6396 207.584 32.73 205.23L176.406 122.562C180.488 120.214 183 115.885 183 111.202Z" fill="#00313C"/>
<path d="M79 112.118C79 116.384 76.8627 120.186 72.4144 121.803V127H66.7324V122.632C63.5873 122.551 60.5639 121.581 59 120.59L60.338 114.261C62.1103 115.312 64.821 116.364 67.636 116.364C70.6594 116.364 72.258 114.908 72.258 112.704C72.258 110.601 70.8679 109.388 67.3753 107.932C62.5447 105.971 59.3823 102.857 59.3823 97.9228C59.3823 93.272 62.0756 89.4908 66.7324 88.1967V83H72.4144V87.8327C74.7081 88.0753 76.4805 88.7224 77.8358 89.4301L76.3762 95.6176C75.212 94.9706 73.1268 94 70.2945 94C67.4448 94 66.0547 95.4963 66.0547 97.2757C66.0547 99.4393 67.7055 100.39 71.4587 102.048C76.5847 104.232 79 107.366 79 112.118Z" fill="white"/>
<path d="M98.0304 73.9627C99.6995 75.5286 101.256 77.2571 102.663 79.0625C105.6 82.8818 107.841 87.0912 109.341 91.6261L109.344 91.6344C110.774 95.9072 111.5 100.41 111.5 105.009V105.011C111.517 128.436 92.4558 147.5 69.0091 147.5C62.2536 147.5 55.8215 145.965 49.8282 142.944C45.5815 140.785 41.7305 137.936 38.3949 134.48L38.3922 134.477C36.8335 132.867 35.3634 131.053 34.0218 129.137C29.3019 122.331 26.7134 114.337 26.5183 106.004V105.905C26.5183 105.72 26.5127 105.537 26.5084 105.395L26.508 105.381C26.5032 105.223 26.5 105.111 26.5 105.009C26.5 81.5805 45.5648 62.5 68.9908 62.5C71.428 62.5 73.8613 62.7075 76.2194 63.1207L76.2297 63.1224C84.4085 64.5201 91.932 68.2626 98.0304 73.9627Z" stroke="white" stroke-width="5"/>
</svg>
