<svg width="183" height="207" viewBox="0 0 183 207" fill="none" xmlns="http://www.w3.org/2000/svg">
<path d="M183 111.202V95.9928C183 91.2985 180.476 86.9614 176.379 84.6173L31.5649 1.75415C27.478 -0.584364 22.4459 -0.584742 18.3587 1.75316L6.62273 8.46619C2.52512 10.81 0 15.1477 0 19.8426V186.509C0 191.205 2.52592 195.543 6.62451 197.887L19.4982 205.248C23.5949 207.59 28.6396 207.584 32.73 205.23L176.406 122.562C180.488 120.214 183 115.885 183 111.202Z" fill="#00313C"/>
<path fill-rule="evenodd" clip-rule="evenodd" d="M67.5 108.718V86.5H72.5V101.282L96.0568 91.6848L97.9432 96.3152L67.5 108.718ZM70 142C90.4345 142 107 125.435 107 105C107 100.07 106.038 95.377 104.297 91.0891C98.7956 77.5397 85.5059 68 70 68C49.5655 68 33 84.5655 33 105C33 125.435 49.5655 142 70 142ZM70 147C93.196 147 112 128.196 112 105C112 99.4142 110.91 94.0832 108.93 89.208C102.689 73.8381 87.6102 63 70 63C46.804 63 28 81.804 28 105C28 128.196 46.804 147 70 147Z" fill="white"/>
</svg>
