<svg width="79.000000" height="97.000000" viewBox="0 0 79 97" fill="none" xmlns="http://www.w3.org/2000/svg" xmlns:xlink="http://www.w3.org/1999/xlink">

	<defs/>
	<path id="Vector" d="M5 20.36L5 43.58Q5 54.91 9.22 64.35Q12.72 72.15 19.1 78.66Q29.2 88.95 39.5 91.41Q49.79 88.95 59.89 78.66Q66.27 72.15 69.77 64.35Q74 54.91 74 43.58L74 20.36L39.5 4.94L5 20.36ZM39.5 -0.53L0 17.11L0 43.58C0 78.13 28.26 94.26 39.5 96.52C50.74 94.26 79 78.13 79 43.58L79 17.11L39.5 -0.53Z" fill="#FFFFFF" fill-opacity="1.000000" fill-rule="evenodd"/>
	<path id="Vector" d="M24.32 46.75L36.37 58.63L34.62 60.41L32.86 58.63L58.05 33.8L61.56 37.36L34.62 63.92L20.81 50.31L24.32 46.75Z" fill="#FFFFFF" fill-opacity="1.000000" fill-rule="evenodd"/>
</svg>
