<svg width="36" height="36" viewBox="0 0 36 36" fill="none" xmlns="http://www.w3.org/2000/svg">
<path fill-rule="evenodd" clip-rule="evenodd" d="M3.97179 35.7461H31.7743C33.9679 35.7461 35.7461 33.9679 35.7461 31.7743V3.97179C35.7461 1.77823 33.9679 0 31.7743 0H3.97179C1.77823 0 0 1.77823 0 3.97179V31.7743C0 33.9679 1.77823 35.7461 3.97179 35.7461Z" fill="#007EBB"/>
<path fill-rule="evenodd" clip-rule="evenodd" d="M30.7102 31.4533H25.4057V22.4186C25.4057 19.9415 24.4644 18.5572 22.5038 18.5572C20.3709 18.5572 19.2566 19.9978 19.2566 22.4186V31.4533H14.1445V14.2423H19.2566V16.5606C19.2566 16.5606 20.7936 13.7164 24.446 13.7164C28.0966 13.7164 30.7102 15.9457 30.7102 20.5564V31.4533ZM8.04584 11.9886C6.30456 11.9886 4.89355 10.5665 4.89355 8.81266C4.89355 7.0588 6.30456 5.63672 8.04584 5.63672C9.78712 5.63672 11.1973 7.0588 11.1973 8.81266C11.1973 10.5665 9.78712 11.9886 8.04584 11.9886ZM5.40619 31.4533H10.7368V14.2423H5.40619V31.4533Z" fill="white"/>
</svg>
