<svg width="270" height="329" viewBox="0 0 270 329" fill="none" xmlns="http://www.w3.org/2000/svg">
<path d="M253.656 328.186V312.938H263.216V314.919H255.957V319.565H262.717V321.538H255.957V326.206H263.305V328.186H253.656Z" fill="#0095B6"/>
<path d="M250.904 317.897H248.581C248.492 317.401 248.325 316.964 248.082 316.587C247.839 316.21 247.541 315.89 247.189 315.627C246.836 315.364 246.442 315.165 246.005 315.031C245.573 314.897 245.114 314.83 244.627 314.83C243.749 314.83 242.962 315.051 242.267 315.493C241.577 315.934 241.031 316.582 240.629 317.436C240.232 318.29 240.034 319.332 240.034 320.563C240.034 321.804 240.232 322.851 240.629 323.705C241.031 324.558 241.58 325.204 242.275 325.641C242.97 326.077 243.751 326.296 244.62 326.296C245.101 326.296 245.558 326.231 245.99 326.102C246.427 325.968 246.821 325.772 247.174 325.514C247.526 325.256 247.824 324.941 248.067 324.568C248.315 324.191 248.487 323.759 248.581 323.273L250.904 323.28C250.78 324.03 250.539 324.72 250.182 325.35C249.829 325.976 249.375 326.517 248.819 326.973C248.268 327.425 247.638 327.775 246.928 328.023C246.218 328.271 245.444 328.395 244.605 328.395C243.285 328.395 242.108 328.083 241.076 327.457C240.044 326.827 239.23 325.926 238.634 324.755C238.043 323.583 237.748 322.186 237.748 320.563C237.748 318.935 238.046 317.538 238.641 316.371C239.237 315.2 240.051 314.301 241.084 313.676C242.116 313.046 243.29 312.73 244.605 312.73C245.414 312.73 246.169 312.847 246.868 313.08C247.573 313.309 248.206 313.646 248.767 314.093C249.328 314.535 249.792 315.076 250.159 315.716C250.527 316.351 250.775 317.078 250.904 317.897Z" fill="#0095B6"/>
<path d="M234.888 312.938V328.186H232.588V312.938H234.888Z" fill="#0095B6"/>
<path d="M229.72 320.563C229.72 322.191 229.422 323.591 228.826 324.762C228.231 325.928 227.414 326.827 226.377 327.457C225.345 328.083 224.171 328.395 222.855 328.395C221.535 328.395 220.356 328.083 219.319 327.457C218.286 326.827 217.472 325.926 216.877 324.755C216.281 323.583 215.983 322.186 215.983 320.563C215.983 318.935 216.281 317.538 216.877 316.371C217.472 315.2 218.286 314.301 219.319 313.676C220.356 313.046 221.535 312.73 222.855 312.73C224.171 312.73 225.345 313.046 226.377 313.676C227.414 314.301 228.231 315.2 228.826 316.371C229.422 317.538 229.72 318.935 229.72 320.563ZM227.442 320.563C227.442 319.322 227.241 318.277 226.839 317.428C226.441 316.575 225.896 315.929 225.201 315.493C224.511 315.051 223.729 314.83 222.855 314.83C221.977 314.83 221.193 315.051 220.503 315.493C219.813 315.929 219.267 316.575 218.865 317.428C218.468 318.277 218.269 319.322 218.269 320.563C218.269 321.804 218.468 322.851 218.865 323.705C219.267 324.554 219.813 325.199 220.503 325.641C221.193 326.077 221.977 326.296 222.855 326.296C223.729 326.296 224.511 326.077 225.201 325.641C225.896 325.199 226.441 324.554 226.839 323.705C227.241 322.851 227.442 321.804 227.442 320.563Z" fill="#0095B6"/>
<path d="M200.914 328.186V312.938H203.215V319.565H210.816V312.938H213.124V328.186H210.816V321.538H203.215V328.186H200.914Z" fill="#0095B6"/>
<path d="M198.162 317.897H195.839C195.749 317.401 195.583 316.964 195.34 316.587C195.097 316.21 194.799 315.89 194.446 315.627C194.094 315.364 193.699 315.165 193.263 315.031C192.831 314.897 192.372 314.83 191.885 314.83C191.007 314.83 190.22 315.051 189.525 315.493C188.835 315.934 188.289 316.582 187.887 317.436C187.49 318.29 187.292 319.332 187.292 320.563C187.292 321.804 187.49 322.851 187.887 323.705C188.289 324.558 188.838 325.204 189.533 325.641C190.227 326.077 191.009 326.296 191.878 326.296C192.359 326.296 192.816 326.231 193.248 326.102C193.685 325.968 194.079 325.772 194.432 325.514C194.784 325.256 195.082 324.941 195.325 324.568C195.573 324.191 195.744 323.759 195.839 323.273L198.162 323.28C198.038 324.03 197.797 324.72 197.439 325.35C197.087 325.976 196.633 326.517 196.077 326.973C195.526 327.425 194.896 327.775 194.186 328.023C193.476 328.271 192.702 328.395 191.863 328.395C190.543 328.395 189.366 328.083 188.334 327.457C187.301 326.827 186.487 325.926 185.892 324.755C185.301 323.583 185.006 322.186 185.006 320.563C185.006 318.935 185.304 317.538 185.899 316.371C186.495 315.2 187.309 314.301 188.341 313.676C189.374 313.046 190.548 312.73 191.863 312.73C192.672 312.73 193.426 312.847 194.126 313.08C194.831 313.309 195.464 313.646 196.025 314.093C196.586 314.535 197.05 315.076 197.417 315.716C197.784 316.351 198.033 317.078 198.162 317.897Z" fill="#0095B6"/>
<path d="M164.42 312.938H167.033L171.016 319.87H171.18L175.163 312.938H177.777L172.245 322.2V328.186H169.952V322.2L164.42 312.938Z" fill="#0095B6"/>
<path d="M160.723 317.756C160.579 317.304 160.386 316.9 160.142 316.542C159.904 316.18 159.619 315.872 159.286 315.619C158.954 315.361 158.574 315.165 158.147 315.031C157.725 314.897 157.261 314.83 156.755 314.83C155.896 314.83 155.122 315.051 154.432 315.493C153.742 315.934 153.196 316.582 152.794 317.436C152.397 318.285 152.198 319.324 152.198 320.555C152.198 321.791 152.399 322.836 152.801 323.69C153.203 324.544 153.754 325.191 154.454 325.633C155.154 326.075 155.951 326.296 156.844 326.296C157.673 326.296 158.395 326.127 159.011 325.789C159.631 325.452 160.11 324.975 160.448 324.36C160.79 323.74 160.961 323.01 160.961 322.171L161.557 322.283H157.194V320.384H163.187V322.119C163.187 323.4 162.914 324.511 162.368 325.454C161.827 326.392 161.078 327.117 160.12 327.628C159.167 328.14 158.075 328.395 156.844 328.395C155.464 328.395 154.253 328.078 153.211 327.442C152.173 326.807 151.364 325.906 150.784 324.74C150.203 323.568 149.913 322.178 149.913 320.57C149.913 319.354 150.081 318.262 150.419 317.294C150.756 316.327 151.23 315.505 151.841 314.83C152.456 314.15 153.179 313.631 154.007 313.274C154.841 312.912 155.752 312.73 156.74 312.73C157.564 312.73 158.331 312.852 159.04 313.095C159.755 313.338 160.391 313.683 160.946 314.13C161.507 314.577 161.971 315.108 162.339 315.723C162.706 316.334 162.954 317.011 163.083 317.756H160.723Z" fill="#0095B6"/>
<path d="M136.891 328.186V312.938H142.326C143.507 312.938 144.487 313.142 145.267 313.549C146.051 313.956 146.636 314.519 147.024 315.239C147.411 315.954 147.604 316.78 147.604 317.718C147.604 318.651 147.408 319.473 147.016 320.183C146.629 320.888 146.043 321.436 145.259 321.828C144.48 322.22 143.5 322.416 142.318 322.416H138.201V320.436H142.11C142.854 320.436 143.46 320.329 143.926 320.116C144.398 319.902 144.743 319.592 144.961 319.185C145.18 318.778 145.289 318.289 145.289 317.718C145.289 317.143 145.177 316.644 144.954 316.222C144.735 315.8 144.39 315.477 143.919 315.254C143.452 315.026 142.839 314.911 142.08 314.911H139.191V328.186H136.891ZM144.418 321.307L148.185 328.186H145.564L141.871 321.307H144.418Z" fill="#0095B6"/>
<path d="M124.258 328.186V312.938H133.818V314.919H126.559V319.565H133.319V321.538H126.559V326.206H133.907V328.186H124.258Z" fill="#0095B6"/>
<path d="M120.902 312.938V328.186H118.788L111.037 317.004H110.896V328.186H108.595V312.938H110.725L118.482 324.136H118.624V312.938H120.902Z" fill="#0095B6"/>
<path d="M95.9624 328.186V312.938H105.522V314.919H98.263V319.565H105.023V321.538H98.263V326.206H105.611V328.186H95.9624Z" fill="#0095B6"/>
<path d="M76.9009 328.186V312.938H82.3359C83.5172 312.938 84.4975 313.142 85.2768 313.549C86.061 313.956 86.6467 314.519 87.0339 315.239C87.421 315.954 87.6146 316.78 87.6146 317.718C87.6146 318.651 87.4185 319.473 87.0264 320.183C86.6393 320.888 86.0536 321.436 85.2693 321.828C84.4901 322.22 83.5098 322.416 82.3285 322.416H78.2112V320.436H82.12C82.8645 320.436 83.4701 320.329 83.9366 320.116C84.4082 319.902 84.7531 319.592 84.9715 319.185C85.1899 318.778 85.2991 318.289 85.2991 317.718C85.2991 317.143 85.1874 316.644 84.9641 316.222C84.7457 315.8 84.4007 315.477 83.9292 315.254C83.4626 315.026 82.8496 314.911 82.0902 314.911H79.2015V328.186H76.9009ZM84.428 321.307L88.1953 328.186H85.5746L81.8817 321.307H84.428Z" fill="#0095B6"/>
<path d="M71.2483 312.938H73.5563V322.967C73.5563 324.034 73.3056 324.98 72.8043 325.804C72.303 326.623 71.5982 327.268 70.6899 327.74C69.7815 328.206 68.7169 328.439 67.4959 328.439C66.2798 328.439 65.2176 328.206 64.3093 327.74C63.401 327.268 62.6962 326.623 62.1948 325.804C61.6935 324.98 61.4429 324.034 61.4429 322.967V312.938H63.7435V322.781C63.7435 323.471 63.8948 324.084 64.1976 324.62C64.5053 325.156 64.9397 325.578 65.5005 325.886C66.0614 326.189 66.7265 326.34 67.4959 326.34C68.2702 326.34 68.9377 326.189 69.4986 325.886C70.0645 325.578 70.4963 325.156 70.7941 324.62C71.0969 324.084 71.2483 323.471 71.2483 322.781V312.938Z" fill="#0095B6"/>
<path d="M58.5744 320.563C58.5744 322.191 58.2766 323.591 57.6809 324.762C57.0853 325.928 56.2688 326.827 55.2315 327.457C54.199 328.083 53.0252 328.395 51.7099 328.395C50.3896 328.395 49.2107 328.083 48.1734 327.457C47.141 326.827 46.3269 325.926 45.7313 324.755C45.1357 323.583 44.8379 322.186 44.8379 320.563C44.8379 318.935 45.1357 317.538 45.7313 316.371C46.3269 315.2 47.141 314.301 48.1734 313.676C49.2107 313.046 50.3896 312.73 51.7099 312.73C53.0252 312.73 54.199 313.046 55.2315 313.676C56.2688 314.301 57.0853 315.2 57.6809 316.371C58.2766 317.538 58.5744 318.935 58.5744 320.563ZM56.2961 320.563C56.2961 319.322 56.0951 318.277 55.6931 317.428C55.296 316.575 54.75 315.929 54.0551 315.493C53.3652 315.051 52.5834 314.83 51.7099 314.83C50.8313 314.83 50.0471 315.051 49.3572 315.493C48.6672 315.929 48.1212 316.575 47.7192 317.428C47.3221 318.277 47.1236 319.322 47.1236 320.563C47.1236 321.804 47.3221 322.851 47.7192 323.705C48.1212 324.554 48.6672 325.199 49.3572 325.641C50.0471 326.077 50.8313 326.296 51.7099 326.296C52.5834 326.296 53.3652 326.077 54.0551 325.641C54.75 325.199 55.296 324.554 55.6931 323.705C56.0951 322.851 56.2961 321.804 56.2961 320.563Z" fill="#0095B6"/>
<path d="M30.5786 312.938H33.1919L37.1751 319.87H37.3389L41.3221 312.938H43.9354L38.4036 322.2V328.186H36.1104V322.2L30.5786 312.938Z" fill="#0095B6"/>
<path d="M21.0298 316.944C20.9503 316.24 20.6227 315.694 20.047 315.307C19.4712 314.914 18.7465 314.718 17.873 314.718C17.2476 314.718 16.7065 314.818 16.2499 315.016C15.7933 315.21 15.4384 315.478 15.1852 315.82C14.9371 316.158 14.813 316.542 14.813 316.974C14.813 317.337 14.8974 317.649 15.0661 317.912C15.2398 318.175 15.4657 318.396 15.7436 318.575C16.0265 318.749 16.3293 318.895 16.652 319.014C16.9746 319.128 17.2848 319.223 17.5826 319.297L19.0717 319.684C19.5581 319.803 20.0569 319.965 20.5682 320.168C21.0794 320.372 21.5534 320.64 21.9902 320.972C22.427 321.305 22.7794 321.717 23.0474 322.208C23.3204 322.7 23.4569 323.288 23.4569 323.973C23.4569 324.836 23.2335 325.603 22.7868 326.273C22.3451 326.943 21.7023 327.472 20.8585 327.859C20.0197 328.246 19.0046 328.44 17.8134 328.44C16.6718 328.44 15.6841 328.259 14.8502 327.896C14.0163 327.534 13.3636 327.02 12.8921 326.355C12.4206 325.685 12.16 324.891 12.1104 323.973H14.4184C14.463 324.524 14.6417 324.983 14.9544 325.35C15.2721 325.712 15.6766 325.983 16.168 326.162C16.6644 326.335 17.2079 326.422 17.7985 326.422C18.4487 326.422 19.027 326.321 19.5333 326.117C20.0445 325.909 20.4465 325.621 20.7394 325.253C21.0322 324.881 21.1787 324.447 21.1787 323.95C21.1787 323.499 21.0496 323.129 20.7915 322.841C20.5384 322.553 20.1934 322.315 19.7566 322.126C19.3248 321.938 18.8359 321.771 18.2899 321.628L16.4882 321.136C15.2671 320.804 14.2993 320.315 13.5845 319.669C12.8747 319.024 12.5198 318.17 12.5198 317.108C12.5198 316.23 12.7581 315.463 13.2346 314.808C13.7111 314.153 14.3563 313.644 15.1703 313.281C15.9844 312.914 16.9026 312.73 17.9251 312.73C18.9575 312.73 19.8683 312.912 20.6575 313.274C21.4517 313.636 22.0771 314.135 22.5337 314.77C22.9903 315.401 23.2286 316.125 23.2484 316.944H21.0298Z" fill="#0095B6"/>
<path d="M9.36308 312.938V328.186H7.0625V312.938H9.36308Z" fill="#0095B6"/>
<path d="M267.573 291.785C267.493 291.08 267.166 290.534 266.59 290.147C266.014 289.755 265.29 289.559 264.416 289.559C263.791 289.559 263.25 289.658 262.793 289.857C262.336 290.051 261.981 290.319 261.728 290.661C261.48 290.999 261.356 291.383 261.356 291.815C261.356 292.177 261.44 292.49 261.609 292.753C261.783 293.016 262.009 293.237 262.287 293.416C262.57 293.59 262.872 293.736 263.195 293.855C263.518 293.969 263.828 294.064 264.126 294.138L265.615 294.525C266.101 294.644 266.6 294.806 267.111 295.009C267.622 295.213 268.096 295.481 268.533 295.813C268.97 296.146 269.322 296.558 269.59 297.049C269.863 297.54 270 298.129 270 298.814C270 299.677 269.777 300.444 269.33 301.114C268.888 301.784 268.245 302.313 267.401 302.7C266.563 303.087 265.548 303.281 264.356 303.281C263.215 303.281 262.227 303.1 261.393 302.737C260.559 302.375 259.907 301.861 259.435 301.196C258.964 300.526 258.703 299.732 258.653 298.814H260.961C261.006 299.365 261.185 299.824 261.497 300.191C261.815 300.553 262.22 300.824 262.711 301.003C263.207 301.176 263.751 301.263 264.341 301.263C264.992 301.263 265.57 301.161 266.076 300.958C266.587 300.749 266.99 300.461 267.282 300.094C267.575 299.722 267.722 299.288 267.722 298.791C267.722 298.34 267.593 297.97 267.334 297.682C267.081 297.394 266.736 297.156 266.3 296.967C265.868 296.779 265.379 296.612 264.833 296.468L263.031 295.977C261.81 295.644 260.842 295.156 260.127 294.51C259.418 293.865 259.063 293.011 259.063 291.949C259.063 291.071 259.301 290.304 259.778 289.649C260.254 288.993 260.899 288.485 261.713 288.122C262.527 287.755 263.446 287.571 264.468 287.571C265.5 287.571 266.411 287.752 267.2 288.115C267.995 288.477 268.62 288.976 269.077 289.611C269.533 290.242 269.772 290.966 269.791 291.785H267.573Z" fill="#0095B6"/>
<path d="M245.987 303.027H243.545L249.033 287.779H251.691L257.178 303.027H254.736L250.425 290.549H250.306L245.987 303.027ZM246.397 297.056H254.319V298.992H246.397V297.056Z" fill="#0095B6"/>
<path d="M239.785 292.597C239.641 292.145 239.448 291.741 239.204 291.383C238.966 291.021 238.681 290.713 238.348 290.46C238.016 290.202 237.636 290.006 237.209 289.872C236.787 289.738 236.323 289.671 235.817 289.671C234.958 289.671 234.184 289.892 233.494 290.333C232.804 290.775 232.258 291.423 231.856 292.277C231.459 293.125 231.26 294.165 231.26 295.396C231.26 296.632 231.461 297.677 231.863 298.531C232.265 299.384 232.816 300.032 233.516 300.474C234.216 300.916 235.013 301.137 235.906 301.137C236.735 301.137 237.457 300.968 238.073 300.63C238.693 300.293 239.172 299.816 239.51 299.201C239.852 298.58 240.023 297.851 240.023 297.012L240.619 297.124H236.256V295.225H242.249V296.96C242.249 298.24 241.976 299.352 241.431 300.295C240.889 301.233 240.14 301.958 239.182 302.469C238.229 302.98 237.137 303.236 235.906 303.236C234.526 303.236 233.315 302.918 232.273 302.283C231.235 301.648 230.426 300.747 229.846 299.58C229.265 298.409 228.975 297.019 228.975 295.411C228.975 294.195 229.143 293.103 229.481 292.135C229.818 291.167 230.292 290.346 230.903 289.671C231.518 288.991 232.241 288.472 233.069 288.115C233.903 287.752 234.814 287.571 235.802 287.571C236.626 287.571 237.393 287.693 238.102 287.936C238.817 288.179 239.453 288.524 240.008 288.971C240.569 289.418 241.033 289.949 241.401 290.564C241.768 291.175 242.016 291.852 242.145 292.597H239.785Z" fill="#0095B6"/>
<path d="M212.083 303.027V287.779H214.384V301.047H221.293V303.027H212.083Z" fill="#0095B6"/>
<path d="M198.692 303.027H196.25L201.737 287.779H204.395L209.882 303.027H207.44L203.129 290.549H203.01L198.692 303.027ZM199.101 297.056H207.023V298.992H199.101V297.056Z" fill="#0095B6"/>
<path d="M183.89 303.027V287.779H189.325C190.506 287.779 191.486 287.983 192.266 288.39C193.05 288.797 193.635 289.36 194.023 290.08C194.41 290.795 194.603 291.621 194.603 292.559C194.603 293.492 194.407 294.314 194.015 295.024C193.628 295.728 193.042 296.277 192.258 296.669C191.479 297.061 190.499 297.257 189.317 297.257H185.2V295.277H189.109C189.853 295.277 190.459 295.17 190.925 294.957C191.397 294.743 191.742 294.433 191.96 294.026C192.179 293.619 192.288 293.13 192.288 292.559C192.288 291.983 192.176 291.485 191.953 291.063C191.734 290.641 191.389 290.318 190.918 290.095C190.451 289.866 189.838 289.752 189.079 289.752H186.19V303.027H183.89ZM191.417 296.148L195.184 303.027H192.563L188.871 296.148H191.417Z" fill="#0095B6"/>
<path d="M178.237 287.779H180.545V297.808C180.545 298.875 180.294 299.821 179.793 300.645C179.292 301.464 178.587 302.109 177.679 302.58C176.77 303.047 175.706 303.28 174.485 303.28C173.269 303.28 172.206 303.047 171.298 302.58C170.39 302.109 169.685 301.464 169.184 300.645C168.682 299.821 168.432 298.875 168.432 297.808V287.779H170.732V297.622C170.732 298.312 170.884 298.925 171.186 299.461C171.494 299.997 171.928 300.419 172.489 300.727C173.05 301.029 173.715 301.181 174.485 301.181C175.259 301.181 175.927 301.029 176.487 300.727C177.053 300.419 177.485 299.997 177.783 299.461C178.086 298.925 178.237 298.312 178.237 297.622V287.779Z" fill="#0095B6"/>
<path d="M154.023 289.76V287.779H165.824V289.76H161.067V303.027H158.774V289.76H154.023Z" fill="#0095B6"/>
<path d="M143.185 303.027H140.743L146.23 287.779H148.888L154.375 303.027H151.933L147.623 290.549H147.503L143.185 303.027ZM143.595 297.056H151.516V298.992H143.595V297.056Z" fill="#0095B6"/>
<path d="M138.541 287.779V303.027H136.426L128.676 291.844H128.534V303.027H126.234V287.779H128.363L136.121 298.977H136.263V287.779H138.541Z" fill="#0095B6"/>
<path d="M117.933 292.738H115.61C115.52 292.242 115.354 291.805 115.111 291.428C114.868 291.051 114.57 290.731 114.217 290.467C113.865 290.204 113.47 290.006 113.034 289.872C112.602 289.738 112.143 289.671 111.656 289.671C110.778 289.671 109.991 289.892 109.296 290.333C108.606 290.775 108.06 291.423 107.658 292.277C107.261 293.13 107.063 294.173 107.063 295.404C107.063 296.645 107.261 297.692 107.658 298.546C108.06 299.399 108.609 300.045 109.304 300.481C109.998 300.918 110.78 301.137 111.649 301.137C112.13 301.137 112.587 301.072 113.019 300.943C113.456 300.809 113.85 300.613 114.203 300.355C114.555 300.097 114.853 299.781 115.096 299.409C115.344 299.032 115.515 298.6 115.61 298.114L117.933 298.121C117.809 298.871 117.568 299.561 117.21 300.191C116.858 300.816 116.404 301.357 115.848 301.814C115.297 302.266 114.667 302.616 113.957 302.864C113.247 303.112 112.473 303.236 111.634 303.236C110.314 303.236 109.137 302.923 108.105 302.298C107.072 301.668 106.258 300.767 105.663 299.595C105.072 298.424 104.777 297.027 104.777 295.404C104.777 293.776 105.075 292.378 105.67 291.212C106.266 290.041 107.08 289.142 108.112 288.517C109.145 287.886 110.319 287.571 111.634 287.571C112.443 287.571 113.197 287.688 113.897 287.921C114.602 288.15 115.235 288.487 115.796 288.934C116.357 289.376 116.821 289.917 117.188 290.557C117.555 291.192 117.804 291.919 117.933 292.738Z" fill="#0095B6"/>
<path d="M101.918 287.779V303.027H99.6172V287.779H101.918Z" fill="#0095B6"/>
<path d="M85.209 289.76V287.779H97.0097V289.76H92.2522V303.027H89.9591V289.76H85.209Z" fill="#0095B6"/>
<path d="M73.3281 303.027V287.779H82.8878V289.76H75.6287V294.406H82.389V296.379H75.6287V301.047H82.9772V303.027H73.3281Z" fill="#0095B6"/>
<path d="M57.7676 303.027V287.779H60.0682V294.406H67.6698V287.779H69.9778V303.027H67.6698V296.379H60.0682V303.027H57.7676Z" fill="#0095B6"/>
<path d="M43.3594 289.76V287.779H55.1601V289.76H50.4026V303.027H48.1094V289.76H43.3594Z" fill="#0095B6"/>
<path d="M40.7552 287.779V303.027H38.6408L30.8903 291.844H30.7488V303.027H28.4482V287.779H30.5776L38.3355 298.977H38.477V287.779H40.7552Z" fill="#0095B6"/>
<path d="M12.9194 287.779H15.5327L19.5159 294.711H19.6797L23.6629 287.779H26.2762L20.7444 297.041V303.027H18.4513V297.041L12.9194 287.779Z" fill="#0095B6"/>
<path d="M8.9194 291.785C8.83999 291.08 8.5124 290.534 7.93663 290.147C7.36086 289.755 6.63619 289.559 5.76262 289.559C5.13722 289.559 4.5962 289.658 4.13956 289.857C3.68291 290.051 3.32802 290.319 3.07489 290.661C2.82671 290.999 2.70262 291.383 2.70262 291.815C2.70262 292.177 2.787 292.49 2.95576 292.753C3.12948 293.016 3.35532 293.237 3.63328 293.416C3.9162 293.59 4.21897 293.736 4.5416 293.855C4.86423 293.969 5.17444 294.064 5.47225 294.138L6.9613 294.525C7.44773 294.644 7.94656 294.806 8.4578 295.009C8.96904 295.213 9.44305 295.481 9.87984 295.813C10.3166 296.146 10.669 296.558 10.9371 297.049C11.2101 297.54 11.3466 298.129 11.3466 298.814C11.3466 299.677 11.1232 300.444 10.6765 301.114C10.2347 301.784 9.59196 302.313 8.74816 302.7C7.90933 303.087 6.8943 303.281 5.70306 303.281C4.56145 303.281 3.57372 303.1 2.73985 302.737C1.90598 302.375 1.25328 301.861 0.781751 301.196C0.310218 300.526 0.0496349 299.732 0 298.814H2.30803C2.3527 299.365 2.53138 299.824 2.84408 300.191C3.16175 300.553 3.56627 300.824 4.05766 301.003C4.55401 301.176 5.09751 301.263 5.68817 301.263C6.33839 301.263 6.91663 301.161 7.42291 300.958C7.93415 300.749 8.33619 300.461 8.62904 300.094C8.92188 299.722 9.06831 299.288 9.06831 298.791C9.06831 298.34 8.93926 297.97 8.68116 297.682C8.42802 297.394 8.08305 297.156 7.64627 296.967C7.21444 296.779 6.72554 296.612 6.17955 296.468L4.3778 295.977C3.15678 295.644 2.1889 295.156 1.47416 294.51C0.764378 293.865 0.409488 293.011 0.409488 291.949C0.409488 291.071 0.647736 290.304 1.12423 289.649C1.60073 288.993 2.24598 288.485 3.06 288.122C3.87401 287.755 4.79226 287.571 5.81474 287.571C6.84714 287.571 7.75795 287.752 8.54714 288.115C9.3413 288.477 9.9667 288.976 10.4233 289.611C10.88 290.242 11.1182 290.966 11.1381 291.785H8.9194Z" fill="#0095B6"/>
<path d="M232.66 221.521H241.642L251.128 244.68H251.532L261.018 221.521H270V255.99H262.936V233.555H262.65L253.735 255.821H248.925L240.01 233.471H239.724V255.99H232.66V221.521Z" fill="white"/>
<path d="M220.069 221.521H227.394V243.9C227.394 246.412 226.79 248.611 225.584 250.495C224.388 252.38 222.714 253.849 220.56 254.903C218.406 255.947 215.897 256.468 213.032 256.468C210.156 256.468 207.642 255.947 205.488 254.903C203.334 253.849 201.659 252.38 200.464 250.495C199.268 248.611 198.67 246.412 198.67 243.9V221.521H205.995V243.277C205.995 244.589 206.283 245.756 206.858 246.777C207.444 247.797 208.267 248.6 209.328 249.183C210.388 249.766 211.622 250.058 213.032 250.058C214.453 250.058 215.688 249.766 216.737 249.183C217.797 248.6 218.614 247.797 219.19 246.777C219.776 245.756 220.069 244.589 220.069 243.277V221.521Z" fill="white"/>
<path d="M156.063 221.521H165.161L174.769 244.68H175.177L184.786 221.521H193.883V255.99H186.728V233.555H186.438L177.409 255.821H172.537L163.508 233.471H163.218V255.99H156.063V221.521Z" fill="white"/>
<path d="M151.277 221.521V255.99H144.096V221.521H151.277Z" fill="white"/>
<path d="M117.609 221.521L124.556 233.269H124.825L131.805 221.521H140.03L129.518 238.756L140.266 255.99H131.89L124.825 244.225H124.556L117.492 255.99H109.149L119.931 238.756L109.351 221.521H117.609Z" fill="white"/>
<path d="M82.091 255.99H74.2021L86.2225 221.521H95.7095L107.713 255.99H99.8239L91.102 229.398H90.8299L82.091 255.99ZM81.5979 242.441H100.232V248.13H81.5979V242.441Z" fill="white"/>
<path d="M33.5107 221.521H42.6078L52.2159 244.68H52.6247L62.2328 221.521H71.3299V255.99H64.1749V233.555H63.8853L54.8564 255.821H49.9842L40.9553 233.471H40.6657V255.99H33.5107V221.521Z" fill="white"/>
<path d="M28.2446 235.883V241.627H12.4468V235.883H28.2446Z" fill="white"/>
<path d="M7.18085 221.521V255.99H0V221.521H7.18085Z" fill="white"/>
<path fill-rule="evenodd" clip-rule="evenodd" d="M175.082 148.176C175.081 150.845 176.505 153.313 178.817 154.647L191.982 162.248C194.473 163.686 197.586 161.887 197.585 159.011L197.508 24.8662C197.506 20.8648 195.37 17.1682 191.905 15.1675L180.861 8.79119C177.393 6.78934 173.121 6.78933 169.654 8.79118L42.9475 81.9453C39.4957 83.9382 37.3622 87.6145 37.3444 91.6002L37.2862 104.607C37.2733 107.49 40.3926 109.301 42.8894 107.859L169.504 34.758C171.995 33.32 175.108 35.1179 175.108 37.9939L175.082 148.176Z" fill="#0095B6"/>
<path d="M191.392 181.178L180.134 187.678C176.661 189.682 172.382 189.679 168.912 187.669L70.1625 130.457L53.6172 120.768C51.1446 119.32 51.1557 115.742 53.6372 114.309L158.741 53.6276C161.238 52.1861 164.357 53.9964 164.344 56.8794L164.277 72.0321C164.265 74.6893 162.842 77.1402 160.541 78.4688L98.3211 114.392C95.8321 115.829 95.8305 119.421 98.3182 120.86L138.991 144.391L191.395 174.709C193.882 176.148 193.881 179.741 191.392 181.178Z" fill="#30B700"/>
</svg>
