<svg width="278" height="52" viewBox="0 0 278 52" fill="none" xmlns="http://www.w3.org/2000/svg">
<g clip-path="url(#clip0_1296_1859)">
<path d="M273.472 51.7061V45.6469H277.254V46.4339H274.382V48.28H277.055V49.064H274.382V50.9192H277.288V51.7061H273.472Z" fill="#0095B6"/>
<path d="M272.341 47.6173H271.423C271.389 47.42 271.322 47.2464 271.227 47.0965C271.128 46.9467 271.012 46.8195 270.874 46.7149C270.733 46.6104 270.576 46.5315 270.404 46.4784C270.234 46.4251 270.051 46.3984 269.86 46.3984C269.512 46.3984 269.202 46.4861 268.926 46.6616C268.652 46.8373 268.437 47.0947 268.278 47.4339C268.122 47.7731 268.042 48.1875 268.042 48.6765C268.042 49.1696 268.122 49.5859 268.278 49.9251C268.437 50.2643 268.655 50.5208 268.928 50.6944C269.204 50.8677 269.512 50.9547 269.857 50.9547C270.046 50.9547 270.229 50.9291 270.399 50.8776C270.571 50.8245 270.728 50.7467 270.866 50.644C271.006 50.5413 271.123 50.4163 271.219 50.2683C271.317 50.1184 271.386 49.9467 271.423 49.7533L272.341 49.7565C272.294 50.0541 272.198 50.3285 272.057 50.5789C271.917 50.8275 271.736 51.0424 271.516 51.224C271.298 51.4035 271.049 51.5424 270.77 51.6411C270.489 51.7397 270.184 51.7891 269.852 51.7891C269.329 51.7891 268.862 51.6648 268.456 51.4163C268.047 51.1656 267.723 50.8077 267.49 50.3421C267.256 49.8768 267.14 49.3216 267.14 48.6765C267.14 48.0296 267.256 47.4744 267.493 47.0109C267.729 46.5453 268.05 46.1883 268.459 45.9397C268.867 45.6893 269.332 45.564 269.852 45.564C270.17 45.564 270.47 45.6104 270.746 45.7032C271.025 45.7939 271.274 45.928 271.497 46.1056C271.718 46.2811 271.901 46.496 272.047 46.7504C272.193 47.0029 272.291 47.292 272.341 47.6173Z" fill="#0095B6"/>
<path d="M265.967 45.6469V51.7061H265.056V45.6469H265.967Z" fill="#0095B6"/>
<path d="M263.88 48.6765C263.88 49.3235 263.762 49.8797 263.526 50.3451C263.291 50.8088 262.968 51.1656 262.558 51.4163C262.15 51.6648 261.685 51.7891 261.165 51.7891C260.643 51.7891 260.177 51.6648 259.766 51.4163C259.358 51.1656 259.036 50.8077 258.801 50.3421C258.565 49.8768 258.447 49.3216 258.447 48.6765C258.447 48.0296 258.565 47.4744 258.801 47.0109C259.036 46.5453 259.358 46.1883 259.766 45.9397C260.177 45.6893 260.643 45.564 261.165 45.564C261.685 45.564 262.15 45.6893 262.558 45.9397C262.968 46.1883 263.291 46.5453 263.526 47.0109C263.762 47.4744 263.88 48.0296 263.88 48.6765ZM262.979 48.6765C262.979 48.1835 262.899 47.7683 262.74 47.4309C262.583 47.0917 262.367 46.8352 262.093 46.6616C261.82 46.4861 261.511 46.3984 261.165 46.3984C260.818 46.3984 260.508 46.4861 260.235 46.6616C259.962 46.8352 259.746 47.0917 259.587 47.4309C259.43 47.7683 259.351 48.1835 259.351 48.6765C259.351 49.1696 259.43 49.5859 259.587 49.9251C259.746 50.2624 259.962 50.5187 260.235 50.6944C260.508 50.8677 260.818 50.9547 261.165 50.9547C261.511 50.9547 261.82 50.8677 262.093 50.6944C262.367 50.5187 262.583 50.2624 262.74 49.9251C262.899 49.5859 262.979 49.1696 262.979 48.6765Z" fill="#0095B6"/>
<path d="M252.446 51.7061V45.6469H253.356V48.28H256.362V45.6469H257.275V51.7061H256.362V49.064H253.356V51.7061H252.446Z" fill="#0095B6"/>
<path d="M251.316 47.6173H250.398C250.362 47.42 250.297 47.2464 250.2 47.0965C250.104 46.9467 249.986 46.8195 249.847 46.7149C249.708 46.6104 249.552 46.5315 249.379 46.4784C249.208 46.4251 249.026 46.3984 248.834 46.3984C248.487 46.3984 248.176 46.4861 247.901 46.6616C247.628 46.8373 247.412 47.0947 247.253 47.4339C247.096 47.7731 247.017 48.1875 247.017 48.6765C247.017 49.1696 247.096 49.5859 247.253 49.9251C247.412 50.2643 247.629 50.5208 247.904 50.6944C248.179 50.8677 248.488 50.9547 248.831 50.9547C249.022 50.9547 249.202 50.9291 249.373 50.8776C249.546 50.8245 249.702 50.7467 249.841 50.644C249.981 50.5413 250.098 50.4163 250.194 50.2683C250.293 50.1184 250.36 49.9467 250.398 49.7533L251.316 49.7565C251.267 50.0541 251.172 50.3285 251.031 50.5789C250.891 50.8275 250.712 51.0424 250.492 51.224C250.274 51.4035 250.025 51.5424 249.744 51.6411C249.463 51.7397 249.157 51.7891 248.825 51.7891C248.303 51.7891 247.838 51.6648 247.43 51.4163C247.021 51.1656 246.7 50.8077 246.464 50.3421C246.23 49.8768 246.114 49.3216 246.114 48.6765C246.114 48.0296 246.231 47.4744 246.467 47.0109C246.702 46.5453 247.024 46.1883 247.433 45.9397C247.841 45.6893 248.305 45.564 248.825 45.564C249.145 45.564 249.444 45.6104 249.72 45.7032C249.999 45.7939 250.249 45.928 250.471 46.1056C250.693 46.2811 250.876 46.496 251.022 46.7504C251.167 47.0029 251.265 47.292 251.316 47.6173Z" fill="#0095B6"/>
<path d="M237.889 45.6469H238.922L240.498 48.4013H240.562L242.138 45.6469H243.171L240.983 49.3275V51.7061H240.077V49.3275L237.889 45.6469Z" fill="#0095B6"/>
<path d="M236.386 47.5611C236.329 47.3816 236.252 47.2208 236.156 47.0789C236.062 46.9349 235.949 46.8125 235.818 46.712C235.686 46.6093 235.536 46.5315 235.367 46.4784C235.2 46.4251 235.017 46.3984 234.817 46.3984C234.477 46.3984 234.171 46.4861 233.898 46.6616C233.625 46.8373 233.409 47.0947 233.25 47.4339C233.093 47.7712 233.015 48.1845 233.015 48.6736C233.015 49.1648 233.094 49.58 233.253 49.9192C233.412 50.2584 233.63 50.5157 233.907 50.6912C234.183 50.8669 234.498 50.9547 234.852 50.9547C235.18 50.9547 235.465 50.8875 235.709 50.7533C235.954 50.6195 236.144 50.4299 236.277 50.1853C236.412 49.9389 236.48 49.6488 236.48 49.3155L236.716 49.36H234.99V48.6056H237.361V49.2949C237.361 49.8037 237.253 50.2456 237.037 50.6203C236.823 50.9931 236.526 51.2811 236.148 51.4843C235.77 51.6875 235.339 51.7891 234.852 51.7891C234.306 51.7891 233.827 51.6627 233.415 51.4104C233.005 51.1579 232.685 50.7997 232.455 50.3363C232.225 49.8709 232.111 49.3187 232.111 48.6795C232.111 48.1963 232.177 47.7624 232.311 47.3776C232.444 46.9931 232.632 46.6667 232.873 46.3984C233.117 46.1283 233.402 45.9221 233.73 45.78C234.06 45.636 234.42 45.564 234.811 45.564C235.136 45.564 235.44 45.6123 235.721 45.7091C236.003 45.8056 236.255 45.9427 236.474 46.1203C236.696 46.2979 236.88 46.5088 237.025 46.7533C237.17 46.996 237.268 47.2653 237.319 47.5611H236.386Z" fill="#0095B6"/>
<path d="M226.919 51.7061V45.6469H229.068C229.536 45.6469 229.923 45.7277 230.232 45.8896C230.542 46.0512 230.773 46.2752 230.926 46.5611C231.079 46.8451 231.156 47.1736 231.156 47.5464C231.156 47.9171 231.078 48.2435 230.923 48.5256C230.77 48.8056 230.539 49.0237 230.229 49.1795C229.92 49.3352 229.533 49.4131 229.065 49.4131H227.437V48.6261H228.983C229.277 48.6261 229.517 48.5837 229.702 48.4989C229.888 48.4141 230.024 48.2909 230.111 48.1291C230.197 47.9675 230.24 47.7731 230.24 47.5464C230.24 47.3176 230.196 47.1192 230.108 46.9517C230.021 46.784 229.885 46.6557 229.699 46.5669C229.514 46.4763 229.272 46.4309 228.971 46.4309H227.829V51.7061H226.919ZM229.896 48.9723L231.386 51.7061H230.349L228.889 48.9723H229.896Z" fill="#0095B6"/>
<path d="M221.882 51.7061V45.6469H225.662V46.4339H222.791V48.28H225.465V49.064H222.791V50.9192H225.698V51.7061H221.882Z" fill="#0095B6"/>
<path d="M220.513 45.6469V51.7061H219.677L216.612 47.2624H216.556V51.7061H215.646V45.6469H216.488L219.556 50.0965H219.612V45.6469H220.513Z" fill="#0095B6"/>
<path d="M210.609 51.7061V45.6469H214.389V46.4339H211.518V48.28H214.192V49.064H211.518V50.9192H214.425V51.7061H210.609Z" fill="#0095B6"/>
<path d="M202.987 51.7061V45.6469H205.136C205.604 45.6469 205.991 45.7277 206.299 45.8896C206.61 46.0512 206.841 46.2752 206.994 46.5611C207.148 46.8451 207.224 47.1736 207.224 47.5464C207.224 47.9171 207.147 48.2435 206.992 48.5256C206.838 48.8056 206.607 49.0237 206.296 49.1795C205.988 49.3352 205.601 49.4131 205.134 49.4131H203.505V48.6261H205.051C205.346 48.6261 205.585 48.5837 205.769 48.4989C205.956 48.4141 206.092 48.2909 206.179 48.1291C206.265 47.9675 206.308 47.7731 206.308 47.5464C206.308 47.3176 206.264 47.1192 206.176 46.9517C206.089 46.784 205.953 46.6557 205.766 46.5669C205.582 46.4763 205.34 46.4309 205.039 46.4309H203.897V51.7061H202.987ZM205.964 48.9723L207.454 51.7061H206.417L204.957 48.9723H205.964Z" fill="#0095B6"/>
<path d="M200.709 45.6469H201.622V49.632C201.622 50.0563 201.523 50.432 201.325 50.7595C201.127 51.0848 200.848 51.3413 200.489 51.5285C200.13 51.7139 199.708 51.8067 199.226 51.8067C198.744 51.8067 198.325 51.7139 197.966 51.5285C197.606 51.3413 197.328 51.0848 197.129 50.7595C196.931 50.432 196.832 50.0563 196.832 49.632V45.6469H197.742V49.5581C197.742 49.8323 197.801 50.076 197.921 50.2888C198.043 50.5019 198.214 50.6696 198.436 50.792C198.658 50.9123 198.921 50.9723 199.226 50.9723C199.532 50.9723 199.796 50.9123 200.018 50.792C200.241 50.6696 200.412 50.5019 200.53 50.2888C200.65 50.076 200.709 49.8323 200.709 49.5581V45.6469Z" fill="#0095B6"/>
<path d="M195.656 48.6765C195.656 49.3235 195.539 49.8797 195.303 50.3451C195.068 50.8088 194.745 51.1656 194.334 51.4163C193.926 51.6648 193.462 51.7891 192.942 51.7891C192.419 51.7891 191.953 51.6648 191.543 51.4163C191.135 51.1656 190.813 50.8077 190.577 50.3421C190.342 49.8768 190.224 49.3216 190.224 48.6765C190.224 48.0296 190.342 47.4744 190.577 47.0109C190.813 46.5453 191.135 46.1883 191.543 45.9397C191.953 45.6893 192.419 45.564 192.942 45.564C193.462 45.564 193.926 45.6893 194.334 45.9397C194.745 46.1883 195.068 46.5453 195.303 47.0109C195.539 47.4744 195.656 48.0296 195.656 48.6765ZM194.755 48.6765C194.755 48.1835 194.676 47.7683 194.517 47.4309C194.36 47.0917 194.144 46.8352 193.869 46.6616C193.596 46.4861 193.287 46.3984 192.942 46.3984C192.594 46.3984 192.284 46.4861 192.011 46.6616C191.738 46.8352 191.522 47.0917 191.363 47.4309C191.206 47.7683 191.128 48.1835 191.128 48.6765C191.128 49.1696 191.206 49.5859 191.363 49.9251C191.522 50.2624 191.738 50.5187 192.011 50.6944C192.284 50.8677 192.594 50.9547 192.942 50.9547C193.287 50.9547 193.596 50.8677 193.869 50.6944C194.144 50.5187 194.36 50.2624 194.517 49.9251C194.676 49.5859 194.755 49.1696 194.755 48.6765Z" fill="#0095B6"/>
<path d="M184.543 45.6469H185.576L187.152 48.4013H187.217L188.792 45.6469H189.825L187.637 49.3275V51.7061H186.731V49.3275L184.543 45.6469Z" fill="#0095B6"/>
<path d="M180.684 47.2387C180.652 46.9587 180.523 46.7416 180.295 46.5877C180.068 46.432 179.781 46.3541 179.435 46.3541C179.188 46.3541 178.974 46.3933 178.793 46.4723C178.613 46.5493 178.473 46.6557 178.373 46.792C178.274 46.9261 178.225 47.0789 178.225 47.2504C178.225 47.3944 178.259 47.5187 178.325 47.6232C178.394 47.7277 178.483 47.8155 178.593 47.8867C178.705 47.9557 178.825 48.0139 178.953 48.0611C179.08 48.1064 179.203 48.144 179.32 48.1736L179.909 48.3275C180.102 48.3747 180.299 48.4389 180.501 48.5197C180.703 48.6005 180.891 48.7072 181.064 48.8392C181.236 48.9715 181.376 49.1352 181.482 49.3304C181.59 49.5256 181.644 49.7595 181.644 50.0315C181.644 50.3747 181.555 50.6795 181.379 50.9459C181.204 51.212 180.95 51.4221 180.616 51.576C180.284 51.7299 179.883 51.8067 179.412 51.8067C178.96 51.8067 178.57 51.7347 178.24 51.5907C177.91 51.4467 177.652 51.2427 177.466 50.9784C177.279 50.712 177.176 50.3965 177.156 50.0315H178.069C178.087 50.2504 178.158 50.4331 178.281 50.5789C178.407 50.7229 178.567 50.8304 178.761 50.9013C178.957 50.9704 179.172 51.0051 179.406 51.0051C179.663 51.0051 179.892 50.9645 180.092 50.8837C180.294 50.8008 180.453 50.6864 180.569 50.5405C180.685 50.3925 180.743 50.22 180.743 50.0227C180.743 49.8432 180.692 49.6963 180.59 49.5819C180.49 49.4675 180.353 49.3728 180.18 49.2979C180.01 49.2229 179.816 49.1568 179.6 49.0997L178.888 48.9043C178.405 48.7723 178.022 48.5779 177.74 48.3216C177.459 48.0651 177.318 47.7259 177.318 47.3037C177.318 46.9547 177.413 46.6499 177.601 46.3896C177.789 46.1291 178.045 45.9269 178.367 45.7829C178.689 45.6371 179.052 45.564 179.456 45.564C179.864 45.564 180.225 45.636 180.537 45.78C180.851 45.924 181.098 46.1221 181.279 46.3747C181.459 46.6253 181.553 46.9131 181.561 47.2387H180.684Z" fill="#0095B6"/>
<path d="M176.028 45.6469V51.7061H175.119V45.6469H176.028Z" fill="#0095B6"/>
<path d="M170.794 47.2387C170.763 46.9587 170.633 46.7416 170.406 46.5877C170.178 46.432 169.891 46.3541 169.546 46.3541C169.298 46.3541 169.084 46.3933 168.904 46.4723C168.723 46.5493 168.583 46.6557 168.483 46.792C168.385 46.9261 168.335 47.0789 168.335 47.2504C168.335 47.3944 168.369 47.5187 168.436 47.6232C168.504 47.7277 168.594 47.8155 168.704 47.8867C168.816 47.9557 168.935 48.0139 169.063 48.0611C169.19 48.1064 169.313 48.144 169.431 48.1736L170.02 48.3275C170.212 48.3747 170.409 48.4389 170.611 48.5197C170.814 48.6005 171.001 48.7072 171.174 48.8392C171.347 48.9715 171.486 49.1352 171.592 49.3304C171.7 49.5256 171.754 49.7595 171.754 50.0315C171.754 50.3747 171.666 50.6795 171.489 50.9459C171.314 51.212 171.06 51.4221 170.726 51.576C170.395 51.7299 169.993 51.8067 169.522 51.8067C169.071 51.8067 168.68 51.7347 168.35 51.5907C168.02 51.4467 167.762 51.2427 167.576 50.9784C167.389 50.712 167.286 50.3965 167.267 50.0315H168.179C168.197 50.2504 168.268 50.4331 168.391 50.5789C168.517 50.7229 168.677 50.8304 168.871 50.9013C169.068 50.9704 169.283 51.0051 169.516 51.0051C169.773 51.0051 170.002 50.9645 170.202 50.8837C170.404 50.8008 170.563 50.6864 170.679 50.5405C170.795 50.3925 170.853 50.22 170.853 50.0227C170.853 49.8432 170.802 49.6963 170.7 49.5819C170.6 49.4675 170.463 49.3728 170.291 49.2979C170.12 49.2229 169.926 49.1568 169.71 49.0997L168.998 48.9043C168.515 48.7723 168.132 48.5779 167.85 48.3216C167.569 48.0651 167.429 47.7259 167.429 47.3037C167.429 46.9547 167.523 46.6499 167.711 46.3896C167.9 46.1291 168.155 45.9269 168.477 45.7829C168.799 45.6371 169.162 45.564 169.566 45.564C169.975 45.564 170.335 45.636 170.647 45.78C170.961 45.924 171.208 46.1221 171.389 46.3747C171.569 46.6253 171.664 46.9131 171.671 47.2387H170.794Z" fill="#0095B6"/>
<path d="M162.216 51.7061H161.251L163.421 45.6469H164.472L166.642 51.7061H165.676L163.971 46.7475H163.924L162.216 51.7061ZM162.379 49.3333H165.511V50.1027H162.379V49.3333Z" fill="#0095B6"/>
<path d="M159.722 47.5611C159.665 47.3816 159.588 47.2208 159.492 47.0789C159.398 46.9349 159.285 46.8125 159.154 46.712C159.022 46.6093 158.872 46.5315 158.703 46.4784C158.536 46.4251 158.353 46.3984 158.152 46.3984C157.813 46.3984 157.506 46.4861 157.234 46.6616C156.961 46.8373 156.745 47.0947 156.586 47.4339C156.429 47.7712 156.35 48.1845 156.35 48.6736C156.35 49.1648 156.43 49.58 156.589 49.9192C156.748 50.2584 156.966 50.5157 157.242 50.6912C157.519 50.8669 157.834 50.9547 158.188 50.9547C158.516 50.9547 158.801 50.8875 159.044 50.7533C159.29 50.6195 159.479 50.4299 159.613 50.1853C159.748 49.9389 159.816 49.6488 159.816 49.3155L160.052 49.36H158.326V48.6056H160.696V49.2949C160.696 49.8037 160.588 50.2456 160.372 50.6203C160.159 50.9931 159.862 51.2811 159.483 51.4843C159.106 51.6875 158.674 51.7891 158.188 51.7891C157.642 51.7891 157.163 51.6627 156.751 51.4104C156.341 51.1579 156.021 50.7997 155.791 50.3363C155.561 49.8709 155.447 49.3187 155.447 48.6795C155.447 48.1963 155.513 47.7624 155.647 47.3776C155.78 46.9931 155.967 46.6667 156.209 46.3984C156.452 46.1283 156.738 45.9221 157.066 45.78C157.396 45.636 157.756 45.564 158.146 45.564C158.472 45.564 158.776 45.6123 159.056 45.7091C159.339 45.8056 159.59 45.9427 159.81 46.1203C160.032 46.2979 160.215 46.5088 160.361 46.7533C160.506 46.996 160.604 47.2653 160.655 47.5611H159.722Z" fill="#0095B6"/>
<path d="M148.684 51.7061V45.6469H149.593V50.9192H152.326V51.7061H148.684Z" fill="#0095B6"/>
<path d="M143.346 51.7061H142.38L144.55 45.6469H145.601L147.771 51.7061H146.805L145.101 46.7475H145.053L143.346 51.7061ZM143.508 49.3333H146.64V50.1027H143.508V49.3333Z" fill="#0095B6"/>
<path d="M137.45 51.7061V45.6469H139.6C140.067 45.6469 140.455 45.7277 140.763 45.8896C141.073 46.0512 141.305 46.2752 141.458 46.5611C141.611 46.8451 141.688 47.1736 141.688 47.5464C141.688 47.9171 141.61 48.2435 141.455 48.5256C141.302 48.8056 141.07 49.0237 140.76 49.1795C140.452 49.3352 140.064 49.4131 139.597 49.4131H137.969V48.6261H139.514C139.809 48.6261 140.048 48.5837 140.233 48.4989C140.419 48.4141 140.556 48.2909 140.642 48.1291C140.729 47.9675 140.772 47.7731 140.772 47.5464C140.772 47.3176 140.727 47.1192 140.639 46.9517C140.553 46.784 140.417 46.6557 140.23 46.5669C140.046 46.4763 139.803 46.4309 139.503 46.4309H138.36V51.7061H137.45ZM140.427 48.9723L141.917 51.7061H140.881L139.42 48.9723H140.427Z" fill="#0095B6"/>
<path d="M135.174 45.6469H136.087V49.632C136.087 50.0563 135.987 50.432 135.789 50.7595C135.591 51.0848 135.312 51.3413 134.953 51.5285C134.594 51.7139 134.173 51.8067 133.69 51.8067C133.209 51.8067 132.789 51.7139 132.43 51.5285C132.07 51.3413 131.792 51.0848 131.593 50.7595C131.395 50.432 131.296 50.0563 131.296 49.632V45.6469H132.206V49.5581C132.206 49.8323 132.265 50.076 132.385 50.2888C132.507 50.5019 132.679 50.6696 132.901 50.792C133.122 50.9123 133.385 50.9723 133.69 50.9723C133.996 50.9723 134.26 50.9123 134.482 50.792C134.705 50.6696 134.876 50.5019 134.994 50.2888C135.114 50.076 135.174 49.8323 135.174 49.5581V45.6469Z" fill="#0095B6"/>
<path d="M125.556 46.4339V45.6469H130.223V46.4339H128.341V51.7061H127.434V46.4339H125.556Z" fill="#0095B6"/>
<path d="M121.228 51.7061H120.262L122.432 45.6469H123.484L125.653 51.7061H124.688L122.983 46.7475H122.936L121.228 51.7061ZM121.39 49.3333H124.523V50.1027H121.39V49.3333Z" fill="#0095B6"/>
<path d="M119.35 45.6469V51.7061H118.514L115.449 47.2624H115.393V51.7061H114.483V45.6469H115.325L118.393 50.0965H118.449V45.6469H119.35Z" fill="#0095B6"/>
<path d="M111.117 47.6173H110.198C110.163 47.42 110.097 47.2464 110.001 47.0965C109.905 46.9467 109.787 46.8195 109.648 46.7149C109.508 46.6104 109.352 46.5315 109.179 46.4784C109.009 46.4251 108.827 46.3984 108.635 46.3984C108.287 46.3984 107.976 46.4861 107.701 46.6616C107.428 46.8373 107.213 47.0947 107.054 47.4339C106.897 47.7731 106.818 48.1875 106.818 48.6765C106.818 49.1696 106.897 49.5859 107.054 49.9251C107.213 50.2643 107.429 50.5208 107.704 50.6944C107.979 50.8677 108.288 50.9547 108.632 50.9547C108.822 50.9547 109.003 50.9291 109.174 50.8776C109.346 50.8245 109.502 50.7467 109.642 50.644C109.781 50.5413 109.899 50.4163 109.995 50.2683C110.093 50.1184 110.161 49.9467 110.198 49.7533L111.117 49.7565C111.068 50.0541 110.973 50.3285 110.831 50.5789C110.692 50.8275 110.512 51.0424 110.292 51.224C110.075 51.4035 109.825 51.5424 109.545 51.6411C109.264 51.7397 108.958 51.7891 108.626 51.7891C108.104 51.7891 107.639 51.6648 107.23 51.4163C106.822 51.1656 106.5 50.8077 106.264 50.3421C106.031 49.8768 105.914 49.3216 105.914 48.6765C105.914 48.0296 106.032 47.4744 106.267 47.0109C106.503 46.5453 106.825 46.1883 107.233 45.9397C107.641 45.6893 108.106 45.564 108.626 45.564C108.946 45.564 109.244 45.6104 109.521 45.7032C109.8 45.7939 110.05 45.928 110.272 46.1056C110.494 46.2811 110.677 46.496 110.822 46.7504C110.968 47.0029 111.066 47.292 111.117 47.6173Z" fill="#0095B6"/>
<path d="M104.742 45.6469V51.7061H103.833V45.6469H104.742Z" fill="#0095B6"/>
<path d="M98.0924 46.4339V45.6469H102.759V46.4339H100.878V51.7061H99.9711V46.4339H98.0924Z" fill="#0095B6"/>
<path d="M93.3523 51.7061V45.6469H97.1331V46.4339H94.2621V48.28H96.9356V49.064H94.2621V50.9192H97.1683V51.7061H93.3523Z" fill="#0095B6"/>
<path d="M87.1572 51.7061V45.6469H88.067V48.28H91.0733V45.6469H91.986V51.7061H91.0733V49.064H88.067V51.7061H87.1572Z" fill="#0095B6"/>
<path d="M81.4174 46.4339V45.6469H86.0843V46.4339H84.2026V51.7061H83.2958V46.4339H81.4174Z" fill="#0095B6"/>
<path d="M80.3458 45.6469V51.7061H79.5095L76.4443 47.2624H76.3885V51.7061H75.4785V45.6469H76.3206L79.3888 50.0965H79.4448V45.6469H80.3458Z" fill="#0095B6"/>
<path d="M69.2959 45.6469H70.3293L71.9047 48.4013H71.9694L73.5448 45.6469H74.5782L72.3906 49.3275V51.7061H71.4835V49.3275L69.2959 45.6469Z" fill="#0095B6"/>
<path d="M67.6728 47.2387C67.6413 46.9587 67.5117 46.7416 67.284 46.5877C67.0563 46.432 66.7697 46.3541 66.4244 46.3541C66.1771 46.3541 65.9629 46.3933 65.7825 46.4723C65.6017 46.5493 65.4616 46.6557 65.3613 46.792C65.2634 46.9261 65.2143 47.0789 65.2143 47.2504C65.2143 47.3944 65.2474 47.5187 65.3143 47.6232C65.383 47.7277 65.4722 47.8155 65.5821 47.8867C65.6941 47.9557 65.8138 48.0139 65.9414 48.0611C66.0691 48.1064 66.1917 48.144 66.3095 48.1736L66.8984 48.3275C67.0908 48.3747 67.288 48.4389 67.4902 48.5197C67.6925 48.6005 67.8798 48.7072 68.0526 48.8392C68.2254 48.9715 68.3647 49.1352 68.4706 49.3304C68.5786 49.5256 68.6328 49.7595 68.6328 50.0315C68.6328 50.3747 68.5444 50.6795 68.3676 50.9459C68.193 51.212 67.9388 51.4221 67.6052 51.576C67.2734 51.7299 66.8719 51.8067 66.4008 51.8067C65.9494 51.8067 65.5587 51.7347 65.2289 51.5907C64.899 51.4467 64.641 51.2427 64.4544 50.9784C64.2679 50.712 64.1649 50.3965 64.1453 50.0315H65.0582C65.0757 50.2504 65.1463 50.4331 65.27 50.5789C65.3958 50.7229 65.5558 50.8304 65.7501 50.9013C65.9462 50.9704 66.1612 51.0051 66.395 51.0051C66.6521 51.0051 66.8806 50.9645 67.081 50.8837C67.2832 50.8008 67.4422 50.6864 67.5579 50.5405C67.6736 50.3925 67.7318 50.22 67.7318 50.0227C67.7318 49.8432 67.6805 49.6963 67.5786 49.5819C67.4783 49.4675 67.3419 49.3728 67.1694 49.2979C66.9985 49.2229 66.805 49.1568 66.5892 49.0997L65.8767 48.9043C65.3937 48.7723 65.011 48.5779 64.7283 48.3216C64.4475 48.0651 64.3072 47.7259 64.3072 47.3037C64.3072 46.9547 64.4014 46.6499 64.5901 46.3896C64.7785 46.1291 65.0335 45.9269 65.3554 45.7829C65.6774 45.6371 66.0407 45.564 66.4449 45.564C66.8533 45.564 67.2134 45.636 67.5255 45.78C67.8395 45.924 68.0868 46.1221 68.2676 46.3747C68.448 46.6253 68.5423 46.9131 68.5502 47.2387H67.6728Z" fill="#0095B6"/>
<path d="M247.523 11.5571H254.649L262.174 30.0051H262.494L270.019 11.5571H277.145V39.0144H271.543V21.1431H271.314L264.242 38.8805H260.426L253.354 21.076H253.127V39.0144H247.523V11.5571Z" fill="black"/>
<path d="M237.744 11.5571H243.521V29.3883C243.521 31.3904 243.045 33.1424 242.094 34.6437C241.151 36.1453 239.83 37.3163 238.131 38.1565C236.432 38.9877 234.453 39.4032 232.193 39.4032C229.925 39.4032 227.941 38.9877 226.242 38.1565C224.543 37.3163 223.223 36.1453 222.28 34.6437C221.337 33.1424 220.865 31.3904 220.865 29.3883V11.5571H226.643V28.8923C226.643 29.9381 226.87 30.8675 227.323 31.6808C227.786 32.4944 228.435 33.1333 229.271 33.5981C230.107 34.0629 231.081 34.2952 232.193 34.2952C233.314 34.2952 234.288 34.0629 235.115 33.5981C235.952 33.1333 236.596 32.4944 237.05 31.6808C237.513 30.8675 237.744 29.9381 237.744 28.8923V11.5571Z" fill="black"/>
<path d="M187.237 11.5571H194.362L201.887 30.0051H202.207L209.732 11.5571H216.857V39.0144H211.254V21.1431H211.027L203.955 38.8805H200.139L193.067 21.076H192.841V39.0144H187.237V11.5571Z" fill="black"/>
<path d="M183.235 11.5571V39.0144H177.457V11.5571H183.235Z" fill="black"/>
<path d="M156.766 11.5571L162.277 20.9152H162.49L168.027 11.5571H174.552L166.213 25.2858L174.739 39.0144H168.094L162.49 29.6432H162.277L156.673 39.0144H150.055L158.608 25.2858L150.215 11.5571H156.766Z" fill="black"/>
<path d="M128.704 39.0144H122.513L131.946 11.5571H139.392L148.811 39.0144H142.62L135.776 17.8316H135.562L128.704 39.0144ZM128.317 28.2219H142.941V32.7536H128.317V28.2219Z" fill="black"/>
<path d="M90.3645 11.5571H97.4894L105.015 30.0051H105.335L112.86 11.5571H119.985V39.0144H114.381V21.1431H114.155L107.083 38.8805H103.267L96.1951 21.076H95.9685V39.0144H90.3645V11.5571Z" fill="black"/>
<path d="M86.1657 23.02V27.5515H73.7035V23.02H86.1657Z" fill="black"/>
<path d="M69.5013 11.5571V39.0144H63.7238V11.5571H69.5013Z" fill="black"/>
<path fill-rule="evenodd" clip-rule="evenodd" d="M38.7667 39.9597C38.7664 40.7147 39.1672 41.412 39.8176 41.7893L43.5212 43.9379C44.2221 44.3445 45.0981 43.836 45.0976 43.0227L45.0758 5.10187C45.0753 3.97072 44.4744 2.92573 43.4997 2.36019L40.3925 0.557695C39.4169 -0.00820519 38.2152 -0.0082041 37.2396 0.557695L1.59275 21.2374C0.621633 21.8007 0.0214107 22.84 0.016389 23.9667L1.11882e-05 27.6437C-0.00361298 28.4587 0.873964 28.9704 1.57639 28.5629L37.1977 7.89816C37.8983 7.49165 38.7741 7.9999 38.7741 8.81291L38.7667 39.9597Z" fill="#0095B6"/>
<path d="M43.3551 49.2885L40.1879 51.1261C39.211 51.6928 38.0072 51.6917 37.0311 51.1237L9.24918 34.9507L4.59444 32.2115C3.89882 31.8021 3.90193 30.7909 4.60004 30.3859L34.1694 13.2319C34.8719 12.8244 35.7495 13.3361 35.7458 14.1511L35.7267 18.4346C35.7235 19.1857 35.3233 19.8786 34.676 20.2541L17.1712 30.4091C16.4709 30.8152 16.4705 31.8307 17.1704 32.2376L28.6132 38.8896L43.3559 47.46C44.056 47.8669 44.0554 48.8824 43.3551 49.2885Z" fill="#30B700"/>
</g>
<defs>
<clipPath id="clip0_1296_1859">
<rect width="277.333" height="52" fill="white"/>
</clipPath>
</defs>
</svg>
