<svg width="199" height="188" viewBox="0 0 199 188" fill="none" xmlns="http://www.w3.org/2000/svg">
<path d="M0.404203 49.1832H9.70087H18.9975M0 65.4047H9.29667H18.5933M0 81.6262H9.29667H18.5933M0 97.8477H9.29667H18.5933M0.808406 114.069H9.29667H18.5933M0.808406 130.291H9.29667H18.5933M1.21261 146.512H9.29667H18.5933M1.21261 162.734H9.29667H18.5933M9.29667 16.7402V184.633L176.637 184.633L9.29667 16.7402ZM35.1657 78.3819V159.489H116.006L35.1657 78.3819Z" stroke="white" stroke-width="5"/>
<path d="M159.437 140.023L195 150.529L184.494 114.966M159.437 140.023L64.0611 44.6467M159.437 140.023L171.965 127.494M184.494 114.966L89.1177 19.59L76.5894 32.1183M184.494 114.966L73.356 3.82842C71.7939 2.26632 69.2612 2.26633 67.6991 3.82842L48.2994 23.2281C46.7373 24.7902 46.7373 27.3229 48.2994 28.885L64.0611 44.6467M184.494 114.966L171.965 127.494M64.0611 44.6467L76.5894 32.1183M76.5894 32.1183L123.065 78.5943L171.965 127.494" stroke="white" stroke-width="5"/>
<path d="M184.07 116.426L159.585 140.036L194.563 149.654L184.07 116.426Z" fill="white" stroke="white"/>
<path d="M76.5894 32.1183L64.0611 44.6467L48.2994 28.885C46.7373 27.3229 46.7373 24.7902 48.2994 23.2281L67.6991 3.82841C69.2612 2.26632 71.7939 2.26631 73.356 3.82839L89.1177 19.59L76.5894 32.1183Z" fill="white" stroke="white" stroke-width="5"/>
</svg>
