<svg width="194" height="165" viewBox="0 0 194 165" fill="none" xmlns="http://www.w3.org/2000/svg">
<path fill-rule="evenodd" clip-rule="evenodd" d="M0.0656738 81.5472V164.717H171.268V127.189L174.7 123.741V100.21H193.136V94.9355H185.198V90.067L182.977 87.8356V85.6042H180.353V87.8356L178.132 90.067V93.7184H175.709V86.2128L171.268 83.7786V77.2872C175.104 72.013 165.211 72.8245 169.451 77.2872V83.7786L164.807 86.2128V93.7184H147.647V90.6756H151.079V86.8214H147.647V77.0844H143.811V86.8214H140.58V90.6756H143.811V93.7184H135.331V82.9671H133.111V93.7184H127.861V89.4585H126.246V93.7184L122.007 89.4585V61.6675H85.2629V59.4361H87.2818V54.3648H80.6194V59.4361H83.6478V61.6675H78.8024V52.1334H76.5816V61.6675H71.3325V59.4361H65.8815V70.3902H62.4494V77.0844H60.8343V62.6818H58.6135V77.0844H56.7965V16.634H58.4116L56.3927 14.6055L54.3738 16.634H55.989V69.5788H52.1531V71.6073H55.989V77.0844H40.6454L38.8284 75.2587V65.3189H43.6737V62.6818H38.8284V9.33127H43.6737L34.3868 0L25.0999 9.33127H29.9453V51.1191H25.0999V53.7562H29.9453V62.6818H25.0999V65.3189H29.9453V75.2587L27.1188 77.0844H15.813V66.9417H13.3904V77.0844H4.50723V81.5472H0.0656738ZM164.605 123.335V97.1668H140.984V153.56H168.037V126.783L164.605 123.335ZM138.763 97.1671V153.358H96.1648V135.304H100.203V141.795H104.24V81.5473L101.616 76.0703V70.9989L98.1837 67.7533H95.3573V66.3333H110.095V68.5647H114.133V66.3333H118.978V89.4586L126.65 97.1671H138.763Z" fill="white"/>
<path d="M83.9983 113.307H86.0172L88.1495 118.946H88.2403L90.3726 113.307H92.3915V121.7H90.8036V116.237H90.7393L88.7356 121.659H87.6543L85.6505 116.216H85.5862V121.7H83.9983V113.307Z" fill="black"/>
<path d="M80.2932 113.307H81.8984V118.681C81.8984 119.285 81.7662 119.813 81.5018 120.265C81.2398 120.718 80.8728 121.071 80.4007 121.324C79.9286 121.575 79.3787 121.7 78.751 121.7C78.1207 121.7 77.5696 121.575 77.0975 121.324C76.6255 121.071 76.2585 120.718 75.9965 120.265C75.7345 119.813 75.6035 119.285 75.6035 118.681V113.307H77.2088V118.532C77.2088 118.847 77.2718 119.127 77.3978 119.372C77.5263 119.617 77.7068 119.81 77.9391 119.95C78.1714 120.09 78.442 120.16 78.751 120.16C79.0624 120.16 79.333 120.09 79.5629 119.95C79.7952 119.81 79.9744 119.617 80.1004 119.372C80.2289 119.127 80.2932 118.847 80.2932 118.532V113.307Z" fill="black"/>
<path d="M65.1123 113.307H67.3836L69.7825 118.946H69.8845L72.2834 113.307H74.5547V121.7H72.7683V116.237H72.696L70.4417 121.659H69.2253L66.971 116.216H66.8987V121.7H65.1123V113.307Z" fill="black"/>
<path d="M64.0629 113.307V121.7H61.9646V113.307H64.0629Z" fill="black"/>
<path d="M55.8541 113.307L57.7278 116.167H57.8004L59.6832 113.307H61.9017L59.0662 117.503L61.9653 121.7H59.7059L57.8004 118.835H57.7278L55.8223 121.7H53.572L56.4802 117.503L53.6265 113.307H55.8541Z" fill="black"/>
<path d="M47.9569 121.7H46.228L48.8624 113.307H50.9415L53.5721 121.7H51.8432L49.9317 115.225H49.8721L47.9569 121.7ZM47.8489 118.401H51.9326V119.786H47.8489V118.401Z" fill="black"/>
<path d="M35.7366 113.307H38.0078L40.4067 118.946H40.5088L42.9077 113.307H45.179V121.7H43.3926V116.237H43.3203L41.066 121.659H39.8495L37.5953 116.216H37.523V121.7H35.7366V113.307Z" fill="black"/>
<path d="M34.6873 116.457V118.555H30.4907V116.457H34.6873Z" fill="black"/>
<path d="M29.441 113.307V121.7H28.3918V113.307H29.441Z" fill="black"/>
<path fill-rule="evenodd" clip-rule="evenodd" d="M20.5035 122.006C20.5034 122.232 20.6243 122.441 20.8204 122.555L21.9373 123.199C22.1486 123.321 22.4128 123.169 22.4126 122.925L22.4061 111.544C22.4059 111.205 22.2247 110.891 21.9307 110.721L20.9938 110.18C20.6996 110.01 20.3372 110.01 20.043 110.18L9.29332 116.387C9.00047 116.556 8.81946 116.868 8.81795 117.206L8.81301 118.309C8.81192 118.554 9.07656 118.707 9.28838 118.585L20.0303 112.383C20.2416 112.261 20.5058 112.414 20.5057 112.658L20.5035 122.006Z" fill="black"/>
<path d="M21.8872 124.805L20.932 125.357C20.6374 125.527 20.2744 125.526 19.98 125.356L11.6022 120.502L10.1985 119.68C9.98871 119.557 9.98964 119.254 10.2002 119.132L19.1171 113.984C19.329 113.862 19.5936 114.015 19.5925 114.26L19.5868 115.545C19.5857 115.771 19.4651 115.979 19.2698 116.091L13.9911 119.139C13.78 119.261 13.7798 119.566 13.9909 119.688L17.4416 121.684L21.8874 124.256C22.0985 124.379 22.0984 124.683 21.8872 124.805Z" fill="black"/>
</svg>
