<svg width="91.000000" height="102.000000" viewBox="0 0 91 102" fill="none" xmlns="http://www.w3.org/2000/svg" xmlns:xlink="http://www.w3.org/1999/xlink">

	<defs/>
	<path id="Vector" d="M50.84 15.52C50.84 16.63 50.27 17.62 49.08 18.04L49.08 19.39L47.57 19.39L47.57 18.25C46.73 18.23 45.92 17.98 45.5 17.72L45.86 16.08C46.33 16.35 47.06 16.62 47.81 16.62C48.62 16.62 49.04 16.24 49.04 15.67C49.04 15.12 48.67 14.81 47.74 14.43C46.45 13.92 45.61 13.11 45.61 11.83C45.61 10.62 46.32 9.63 47.57 9.3L47.57 7.95L49.08 7.95L49.08 9.2C49.7 9.27 50.17 9.43 50.53 9.62L50.14 11.23C49.83 11.06 49.27 10.81 48.52 10.81C47.76 10.81 47.39 11.2 47.39 11.66C47.39 12.22 47.83 12.47 48.83 12.9C50.2 13.47 50.84 14.28 50.84 15.52Z" fill="#FFFFFF" fill-opacity="1.000000" fill-rule="nonzero"/>
	<path id="Vector" d="M48.18 26.69C46.06 26.69 44.03 26.2 42.14 25.25C40.8 24.57 39.59 23.67 38.54 22.59C38.05 22.07 37.59 21.5 37.17 20.91C35.68 18.76 34.86 16.23 34.8 13.61L34.8 13.57C34.8 13.48 34.8 13.39 34.8 13.3C34.8 5.92 40.8 -0.08 48.18 -0.08C48.94 -0.08 49.71 -0.02 50.46 0.11C53.03 0.55 55.4 1.73 57.32 3.53C57.85 4.02 58.34 4.57 58.78 5.13C59.71 6.33 60.41 7.66 60.89 9.09C61.34 10.44 61.57 11.86 61.57 13.3C61.57 20.68 55.57 26.69 48.18 26.69ZM38.8 13.56Q38.8 13.46 38.8 13.32L38.8 13.3Q38.8 11.39 39.46 9.75Q40.15 8.07 41.55 6.67Q42.95 5.27 44.63 4.58Q46.27 3.92 48.18 3.92Q48.99 3.92 49.77 4.05Q51.13 4.28 52.31 4.87Q53.54 5.47 54.59 6.45Q55.13 6.95 55.63 7.59Q56.13 8.24 56.5 8.96Q56.85 9.62 57.09 10.35Q57.24 10.81 57.35 11.28Q57.57 12.27 57.57 13.3Q57.57 15.22 56.89 16.87Q56.21 18.54 54.82 19.93Q53.43 21.32 51.75 22.01Q50.11 22.69 48.18 22.69Q47.03 22.69 45.94 22.42Q44.92 22.17 43.95 21.68Q43.95 21.68 43.95 21.68Q43.95 21.68 43.94 21.68Q43.35 21.38 42.81 21Q42.07 20.48 41.42 19.81Q40.92 19.29 40.44 18.61Q39.74 17.59 39.33 16.46Q38.84 15.09 38.8 13.56Z" fill="#FFFFFF" fill-opacity="1.000000" fill-rule="evenodd"/>
	<path id="Vector" d="M23.84 20.57Q26.29 20.82 30.45 26.37L33.12 24.37L34.1 27.82Q35.54 27.41 39.81 27.1Q45.09 26.72 48.5 27.21Q54.04 28.02 59.45 30.43L62.19 31.66L65.34 27.94Q66.53 28.34 67.68 28.83Q72.19 30.77 76.1 34.11Q79.73 37.22 82.12 41.09Q85.34 46.3 86.31 52.89L86.32 52.94L86.32 52.98Q87.37 59.11 86.23 66.1Q84.68 75.54 79.15 80.68Q77.02 82.66 74.3 84L72.07 85.1L72.07 96.99Q72.07 97.5 71.81 97.75Q71.57 98 71.08 98L61.41 98Q60.92 98 60.68 97.75Q60.42 97.5 60.42 96.99L60.42 88.48L55.77 89.25Q52.9 89.72 50.19 89.72Q48.28 89.72 46.61 89.47L42 88.75L42 96.65Q42 97.33 41.66 97.66Q41.32 98 40.66 98L31.15 98Q30.49 98 30.15 97.66Q29.81 97.33 29.81 96.65L29.81 87.04L27.48 85.97Q19.58 82.36 14.61 76.33Q13.32 74.77 12.23 73.05L11.37 71.69L9.81 71.31Q8.16 70.9 6.5 70.7Q5.6 70.59 5.1 70.09Q4.59 69.58 4.49 68.65Q3.67 60.78 4.13 55.05Q4.16 54.56 4.41 54.23Q4.65 53.92 5.07 53.75L11.93 50.93L12.5 49.15Q14.49 42.86 18.6 38.63Q19.65 37.56 20.83 36.62L22.5 35.3L22.33 33.18Q22.08 29.94 22.21 27.14Q22.49 21.42 23.84 20.57ZM32.64 22.68C28.35 17.42 25.21 16.56 23.62 16.56C23.35 16.56 23.15 16.59 23.03 16.62C22.94 16.63 22.86 16.66 22.78 16.68C19.99 17.65 18.5 21.01 18.21 26.95C18.09 29.59 18.24 32.11 18.34 33.49C12.16 38.41 9.49 45.4 8.68 47.94L3.55 50.05C1.61 50.84 0.31 52.64 0.14 54.73C-0.19 58.92 0.1 65.1 0.51 69.07C0.82 72.02 3.09 74.32 6.03 74.67C7.23 74.81 8.23 75.04 8.85 75.19C14.26 83.73 22.67 88.17 25.81 89.61L25.81 96.65C25.81 99.6 28.2 102 31.15 102L40.66 102C43.33 102 45.55 100.02 45.94 97.45C45.98 97.19 46 96.92 46 96.65L46 93.42C47.24 93.61 48.58 93.71 50 93.72C50.06 93.72 50.12 93.72 50.19 93.72C50.96 93.72 51.71 93.7 52.42 93.65C53.96 93.56 55.34 93.37 56.42 93.2L56.42 96.99C56.42 97.08 56.42 97.16 56.43 97.25C56.56 99.89 58.74 102 61.41 102L71.08 102C73.83 102 76.07 99.75 76.07 96.99L76.07 87.59C83.68 83.83 88.55 76.65 90.17 66.75C91.4 59.27 90.36 52.85 90.27 52.31C89 43.7 85.11 36.55 78.7 31.08C73.57 26.68 68.23 24.66 66.17 24C65.84 23.89 65.49 23.84 65.14 23.84C64.14 23.84 63.2 24.27 62.56 25.04L61.08 26.78C57.83 25.33 53.09 23.84 49.07 23.25C43.97 22.51 36.76 23.25 33.92 23.77C33.79 23.8 33.67 23.82 33.56 23.84C33.25 23.44 32.94 23.05 32.64 22.68Z" fill="#FFFFFF" fill-opacity="1.000000" fill-rule="evenodd"/>
	<path id="Vector" d="M24.09 47.87C24.09 47.87 29.15 43.1 34.76 47.91C34.76 47.91 35 44.65 30.8 43.52C29.61 43.2 28.31 43.29 27.17 43.81C25.8 44.43 24.15 45.64 24.09 47.87Z" fill="#FFFFFF" fill-opacity="1.000000" fill-rule="nonzero"/>
</svg>
