<svg width="91" height="103" viewBox="0 0 91 103" fill="none" xmlns="http://www.w3.org/2000/svg">
<path d="M50.848 16.523C50.848 17.6325 50.2774 18.621 49.0898 19.0417V20.393H47.5728V19.2573C46.7331 19.2362 45.9259 18.9838 45.5084 18.7262L45.8656 17.0804C46.3388 17.3538 47.0625 17.6272 47.814 17.6272C48.6212 17.6272 49.048 17.2486 49.048 16.6755C49.048 16.1286 48.6769 15.8131 47.7444 15.4345C46.4548 14.9245 45.6105 14.1147 45.6105 12.8317C45.6105 11.6223 46.3295 10.6391 47.5728 10.3025V8.95117H49.0898V10.2079C49.7021 10.271 50.1753 10.4392 50.5371 10.6233L50.1475 12.2323C49.8366 12.064 49.28 11.8116 48.5238 11.8116C47.763 11.8116 47.3919 12.2007 47.3919 12.6635C47.3919 13.2261 47.8326 13.4732 48.8346 13.9044C50.2031 14.4723 50.848 15.2873 50.848 16.523Z" fill="white"/>
<path d="M39.9863 22.2017L39.984 22.1994C39.5732 21.7751 39.1781 21.2892 38.8124 20.767C37.5536 18.951 36.8609 16.8184 36.806 14.5893V14.5749C36.806 14.5002 36.8038 14.4287 36.8025 14.388L36.8023 14.3811C36.8008 14.3305 36.8005 14.3164 36.8005 14.3084C36.8005 8.03303 41.9093 2.9209 48.1826 2.9209C48.8369 2.9209 49.4881 2.97667 50.1159 3.08665L50.1159 3.08667L50.1241 3.08808C52.3127 3.46207 54.3261 4.46271 55.9618 5.99139C56.4055 6.4078 56.8238 6.87154 57.2045 7.35989C57.9922 8.38493 58.5908 9.5107 58.9916 10.7224L58.9939 10.729C59.3753 11.8687 59.5702 13.0733 59.5702 14.3084V14.3099C59.5748 20.5823 54.4687 25.6905 48.1881 25.6905C46.3756 25.6905 44.6567 25.2804 43.0499 24.4705C41.9129 23.8924 40.8813 23.1292 39.9863 22.2017Z" stroke="white" stroke-width="4"/>
<path d="M21.3919 21.768C21.9788 20.4481 22.6806 19.8482 23.4143 19.585L23.4391 19.5803L23.4583 19.5759C23.4621 19.5754 23.4677 19.5747 23.475 19.574C23.5042 19.571 23.5555 19.5674 23.6289 19.5674C24.4548 19.5674 27.407 20.0213 31.9642 26.0554L32.7261 27.0642L33.9642 26.8088C36.3748 26.3116 43.7629 25.5092 48.7903 26.239C52.6003 26.7922 57.1616 28.2248 60.2663 29.6125L61.6368 30.2251L62.6078 29.0803L64.0892 27.3335L64.0896 27.3331C64.3568 27.0178 64.7385 26.8428 65.1415 26.8428C65.2863 26.8428 65.4258 26.8648 65.5624 26.9089L65.5636 26.9093C67.4809 27.5282 72.5537 29.4432 77.4068 33.5992L77.4073 33.5996C83.4308 38.7542 87.0911 45.4569 88.293 53.6049L88.2963 53.6278L88.3002 53.6506C88.3766 54.0963 89.3801 60.2661 88.2056 67.4314C86.6663 76.822 82.117 83.3762 75.1853 86.7972L74.0704 87.3474V88.5907V97.9991C74.0704 99.6587 72.7249 101 71.0835 101H61.4135C59.7721 101 58.4266 99.6587 58.4266 97.9991V94.2009V91.8429L56.1002 92.2277C54.5961 92.4765 52.4789 92.7288 50.1915 92.7288C48.7966 92.7288 47.4993 92.6317 46.3078 92.4475L44.0023 92.0911V94.424V97.6509C44.0023 99.5009 42.4994 101 40.668 101H31.15C29.3186 101 27.8158 99.5009 27.8158 97.6509V90.6149V89.3312L26.6486 88.7966C23.6401 87.4186 15.649 83.1756 10.5415 75.1235L10.1123 74.447L9.33485 74.2538C8.66936 74.0885 7.57374 73.8461 6.27159 73.6917L6.27139 73.6917C4.26298 73.4539 2.71925 71.889 2.50665 69.8652C2.10076 65.9604 1.81928 59.9196 2.13672 55.8935C2.24552 54.5489 3.076 53.4112 4.30975 52.9052L4.31094 52.9047L9.44983 50.7934L10.3143 50.4382L10.5964 49.5473C11.3569 47.1462 13.8722 40.6061 19.5929 36.0622L20.4261 35.4003L20.3428 34.3395C20.2373 32.9967 20.0973 30.5713 20.2164 28.0461C20.3546 25.1935 20.7779 23.1491 21.3919 21.768Z" stroke="white" stroke-width="4"/>
<path d="M24.0928 48.8766C24.0928 48.8766 29.1565 44.1003 34.7694 48.9137C34.7694 48.9137 35.0056 45.6554 30.8096 44.5235C29.6178 44.2008 28.3162 44.296 27.1793 44.8144C25.8008 45.4385 24.1587 46.6445 24.0928 48.8766Z" fill="white"/>
</svg>
