<svg class="in-icon" width="26" height="26" viewBox="0 0 26 26" fill="none" xmlns="http://www.w3.org/2000/svg">
<path fill-rule="evenodd" clip-rule="evenodd" d="M3.34572 25.3654H23.0744C24.6309 25.3654 25.8927 24.1036 25.8927 22.547V2.81838C25.8927 1.26183 24.6309 0 23.0744 0H3.34572C1.78917 0 0.527344 1.26183 0.527344 2.81838V22.547C0.527344 24.1036 1.78917 25.3654 3.34572 25.3654Z" fill="#007EBB"/>
<path fill-rule="evenodd" clip-rule="evenodd" d="M22.3195 22.3195H18.5554V15.9084C18.5554 14.1507 17.8875 13.1684 16.4962 13.1684C14.9827 13.1684 14.192 14.1906 14.192 15.9084V22.3195H10.5645V10.1065H14.192V11.7516C14.192 11.7516 15.2827 9.73336 17.8744 9.73336C20.4648 9.73336 22.3195 11.3153 22.3195 14.587V22.3195ZM6.23686 8.50729C5.00125 8.50729 4 7.49819 4 6.25365C4 5.0091 5.00125 4 6.23686 4C7.47247 4 8.47312 5.0091 8.47312 6.25365C8.47312 7.49819 7.47247 8.50729 6.23686 8.50729ZM4.36377 22.3195H8.14633V10.1065H4.36377V22.3195Z" fill="white"/>
</svg>
