<svg width="338" height="384" viewBox="0 0 338 384" fill="none" xmlns="http://www.w3.org/2000/svg">
<path fill-rule="evenodd" clip-rule="evenodd" d="M290.267 296.909C290.266 302.521 293.259 307.707 298.119 310.513L325.79 326.489C331.027 329.512 337.572 325.731 337.568 319.684L337.406 37.7165C337.402 29.3056 332.913 21.5355 325.629 17.3301L302.414 3.92737C295.126 -0.280467 286.147 -0.280481 278.859 3.92735L12.5251 157.695C5.26947 161.884 0.784928 169.611 0.747418 177.989L0.625084 205.33C0.597985 211.39 7.15474 215.195 12.4029 212.165L278.544 58.5088C283.779 55.486 290.323 59.2652 290.322 65.3104L290.267 296.909Z" fill="#0095B6"/>
<path d="M324.55 366.274L300.886 379.936C293.587 384.15 284.592 384.144 277.3 379.918L69.73 259.661L34.9524 239.294C29.7551 236.251 29.7783 228.73 34.9943 225.719L255.92 98.1673C261.168 95.1373 267.725 98.9424 267.698 105.003L267.555 136.853C267.53 142.439 264.541 147.59 259.704 150.383L128.919 225.891C123.687 228.912 123.684 236.462 128.913 239.488L214.407 288.95L324.556 352.677C329.786 355.702 329.782 363.253 324.55 366.274Z" fill="#30B700"/>
</svg>
