<svg width="177" height="159" viewBox="0 0 177 159" fill="none" xmlns="http://www.w3.org/2000/svg">
<path d="M102 144H146C163.121 144 177 130.121 177 113C177 95.8792 163.121 82 146 82H102C84.8792 82 71 95.8792 71 113C71 130.121 84.8792 144 102 144Z" fill="white"/>
<path d="M12 85H30V115H12V85Z" fill="white"/>
<path d="M3 123.889C3 122.293 4.30584 121 5.91667 121H35.0833C36.6942 121 38 122.293 38 123.889V144.111C38 145.707 36.6942 147 35.0833 147H5.91667C4.30584 147 3 145.707 3 144.111V123.889Z" fill="white"/>
<path d="M0 156C0 154.343 1.31117 153 2.92857 153H38.0714C39.6888 153 41 154.343 41 156C41 157.657 39.6888 159 38.0714 159H2.92857C1.31117 159 0 157.657 0 156Z" fill="white"/>
<path d="M115 72C115 69.7909 117.015 68 119.5 68H128.5C130.985 68 133 69.7909 133 72C133 74.2091 130.985 76 128.5 76H119.5C117.015 76 115 74.2091 115 72Z" fill="white"/>
<path d="M115 0H133V6H115V0Z" fill="white"/>
<path d="M121 9H127V50H121V9Z" fill="white"/>
<path fill-rule="evenodd" clip-rule="evenodd" d="M124 45L166 83.8614L164.007 86L124 48.9826L83.9929 86L82 83.8614L124 45Z" fill="white"/>
<path d="M28 67.24L109 3V5.92L36.8364 76L28 67.24Z" fill="white"/>
<path d="M12 82C12 77.0294 16.0294 73 21 73C25.9706 73 30 77.0294 30 82H12Z" fill="white"/>
<path d="M90.7259 127V99.3636H95.7322V122.803H107.904V127H90.7259ZM112.249 127V99.3636H122.613C124.736 99.3636 126.517 99.7595 127.957 100.551C129.405 101.343 130.498 102.431 131.236 103.817C131.982 105.193 132.356 106.759 132.356 108.513C132.356 110.285 131.982 111.859 131.236 113.236C130.489 114.612 129.387 115.696 127.93 116.488C126.472 117.271 124.678 117.662 122.545 117.662H115.677V113.546H121.871C123.112 113.546 124.129 113.33 124.92 112.898C125.712 112.467 126.297 111.873 126.675 111.117C127.062 110.362 127.255 109.493 127.255 108.513C127.255 107.532 127.062 106.669 126.675 105.922C126.297 105.175 125.708 104.595 124.907 104.181C124.115 103.758 123.094 103.547 121.844 103.547H117.256V127H112.249ZM155.219 108.189C154.994 107.46 154.683 106.808 154.287 106.232C153.901 105.647 153.433 105.148 152.884 104.734C152.344 104.321 151.724 104.01 151.022 103.803C150.32 103.587 149.555 103.479 148.728 103.479C147.243 103.479 145.921 103.853 144.76 104.599C143.6 105.346 142.687 106.444 142.021 107.892C141.364 109.331 141.036 111.086 141.036 113.155C141.036 115.242 141.364 117.01 142.021 118.458C142.678 119.906 143.591 121.009 144.76 121.764C145.93 122.511 147.288 122.884 148.836 122.884C150.239 122.884 151.454 122.614 152.479 122.075C153.514 121.535 154.31 120.77 154.868 119.781C155.425 118.782 155.704 117.612 155.704 116.272L156.838 116.447H149.335V112.534H160.549V115.854C160.549 118.22 160.045 120.266 159.037 121.994C158.03 123.721 156.644 125.052 154.881 125.988C153.118 126.915 151.094 127.378 148.809 127.378C146.263 127.378 144.027 126.807 142.102 125.664C140.186 124.513 138.688 122.88 137.608 120.766C136.538 118.643 136.003 116.124 136.003 113.209C136.003 110.978 136.318 108.985 136.947 107.231C137.586 105.477 138.477 103.988 139.619 102.764C140.762 101.532 142.102 100.596 143.64 99.9574C145.179 99.3097 146.852 98.9858 148.66 98.9858C150.19 98.9858 151.616 99.2107 152.938 99.6605C154.26 100.101 155.434 100.731 156.46 101.55C157.495 102.368 158.345 103.34 159.01 104.464C159.676 105.589 160.113 106.83 160.319 108.189H155.219Z" fill="black"/>
</svg>
