<svg width="178" height="195" viewBox="0 0 178 195" fill="none" xmlns="http://www.w3.org/2000/svg">
<path d="M30.7497 50.0218C28.4147 36.4006 29.5822 9.15828 52.9328 9.15828C64.6078 2.15335 106.055 -10.6897 106.055 50.0218M30.7497 50.0218C26.0796 50.0218 21.4089 56.9105 37.7543 70.4539M30.7497 50.0218H37.7546M106.055 50.0218H99.6337M106.055 50.0218C110.725 50.0218 115.979 57.4943 99.6337 71.0376M99.6337 50.0218V37.7631H37.7546V50.0218M99.6337 50.0218V71.0376M99.6337 71.0376V79.7941C93.5189 100.176 69.4703 105.756 52.9322 97.7264M37.7546 50.0218V79.7941C40.0441 88.2477 45.7873 94.2572 52.9322 97.7264M52.9322 97.7264C53.259 103.328 52.1068 107.128 50.0134 109.916M87.3743 96.0253C86.9946 102.534 88.6118 106.791 91.3821 109.916M50.0134 109.916C58.4198 118.323 83.3799 117.918 91.3821 109.916M50.0134 109.916V144.592M50.0134 109.916C46.8634 114.111 41.5823 116.013 36.0031 118.307M91.3821 109.916C97.1298 116.4 107.841 118.011 115.979 124.744C129.203 135.686 136.994 151.101 136.994 165.024V183.704M91.3821 109.916V144.592M91.3821 144.592H50.0134M91.3821 144.592H109.557V183.704M50.0134 144.592H36.0031M29.5817 183.704V144.592H36.0031M36.0031 144.592V118.307M36.0031 118.307C32.0431 119.936 27.9328 121.761 24.3278 124.744C11.1037 135.686 3.31226 151.101 3.31226 165.024V183.704" stroke="white" stroke-width="5"/>
<path d="M99.6337 37.7637V50.0224V71.0382V79.7947C93.5189 100.177 69.4704 105.757 52.9322 97.727C45.7873 94.2578 40.0441 88.2483 37.7546 79.7947V37.7637H99.6337Z" stroke="white" stroke-width="5"/>
<path d="M47.6783 67.5356V55.8604H89.7094V67.5356H47.6783Z" stroke="white" stroke-width="5"/>
<path d="M114.811 117.157L109.919 131.168M114.811 117.157L118.63 118.5C120.191 119.048 121.013 120.757 120.468 122.319L117.554 130.665C117.007 132.231 115.292 133.056 113.727 132.506L109.919 131.168M114.811 117.157L110.141 115.103M109.919 131.168L89.1256 190.712L74.5315 184.29L100.217 110.736L110.141 115.103M110.141 115.103L123.568 76.8777L138.225 69.2867M117.73 74.3055L114.367 83.8793L104.303 112.53M117.73 74.307L118.878 71.038L134.659 62.8653M134.659 62.8653L138.225 69.2867M134.659 62.8653V57.6114L150.421 51.7737M138.225 69.2867L143.416 71.038L155.091 59.9464M150.421 51.7737L151.288 49.6916C152.531 46.7105 155.443 44.7686 158.673 44.7686H173.188L164.768 56.9309C163.46 58.8195 161.309 59.9464 159.012 59.9464H155.091M150.421 51.7737L155.091 59.9464" stroke="white" stroke-width="5"/>
<path d="M151.288 49.6916L150.421 51.7737L155.091 59.9464H159.012C161.309 59.9464 163.46 58.8195 164.768 56.9309L173.188 44.7686H158.673C155.443 44.7686 152.531 46.7105 151.288 49.6916Z" fill="white"/>
<path d="M89.1256 190.711L74.5315 184.29L100.217 110.735L110.141 115.102L114.811 117.157L118.63 118.499C120.191 119.048 121.013 120.756 120.468 122.318L117.554 130.664C117.007 132.231 115.292 133.056 113.727 132.505L109.919 131.167L89.1256 190.711Z" fill="white"/>
</svg>
