<svg width="30" height="21" viewBox="0 0 30 21" fill="none" xmlns="http://www.w3.org/2000/svg">
<path d="M14.9999 16.333C16.6666 16.333 18.0833 15.7497 19.2499 14.583C20.4166 13.4163 20.9999 11.9997 20.9999 10.333C20.9999 8.66634 20.4166 7.24967 19.2499 6.08301C18.0833 4.91634 16.6666 4.33301 14.9999 4.33301C13.3333 4.33301 11.9166 4.91634 10.7499 6.08301C9.58325 7.24967 8.99992 8.66634 8.99992 10.333C8.99992 11.9997 9.58325 13.4163 10.7499 14.583C11.9166 15.7497 13.3333 16.333 14.9999 16.333ZM14.9999 13.933C13.9999 13.933 13.1499 13.583 12.4499 12.883C11.7499 12.183 11.3999 11.333 11.3999 10.333C11.3999 9.33301 11.7499 8.48301 12.4499 7.78301C13.1499 7.08301 13.9999 6.73301 14.9999 6.73301C15.9999 6.73301 16.8499 7.08301 17.5499 7.78301C18.2499 8.48301 18.5999 9.33301 18.5999 10.333C18.5999 11.333 18.2499 12.183 17.5499 12.883C16.8499 13.583 15.9999 13.933 14.9999 13.933ZM14.9999 20.333C11.7555 20.333 8.79992 19.4275 6.13325 17.6163C3.46659 15.8052 1.53325 13.3775 0.333252 10.333C1.53325 7.28856 3.46659 4.86079 6.13325 3.04967C8.79992 1.23856 11.7555 0.333008 14.9999 0.333008C18.2444 0.333008 21.1999 1.23856 23.8666 3.04967C26.5333 4.86079 28.4666 7.28856 29.6666 10.333C28.4666 13.3775 26.5333 15.8052 23.8666 17.6163C21.1999 19.4275 18.2444 20.333 14.9999 20.333ZM14.9999 17.6663C17.511 17.6663 19.8166 17.0052 21.9166 15.683C24.0166 14.3608 25.6221 12.5775 26.7333 10.333C25.6221 8.08856 24.0166 6.30523 21.9166 4.98301C19.8166 3.66079 17.511 2.99967 14.9999 2.99967C12.4888 2.99967 10.1833 3.66079 8.08325 4.98301C5.98325 6.30523 4.3777 8.08856 3.26659 10.333C4.3777 12.5775 5.98325 14.3608 8.08325 15.683C10.1833 17.0052 12.4888 17.6663 14.9999 17.6663Z" fill="#0095B6"/>
</svg>
